<svg id="Capa_1" data-name="Capa 1" xmlns="http://www.w3.org/2000/svg" xmlns:xlink="http://www.w3.org/1999/xlink" viewBox="0 0 800 800"><defs><style>.cls-1{fill:url(#Degradado_sin_nombre_34);}.cls-2{fill:#e20613;}.cls-3{fill:#bed0ed;}.cls-4{fill:#fafafa;}.cls-5{fill:#171d70;stroke:#171d70;stroke-width:12px;}.cls-5,.cls-7,.cls-9{stroke-miterlimit:10;}.cls-6,.cls-7,.cls-9{fill:none;}.cls-7{stroke:#034a9e;}.cls-8{fill:url(#Degradado_sin_nombre_136);}.cls-9{stroke:#000;}.cls-10{fill:url(#Degradado_sin_nombre_175);}.cls-11{fill:url(#Degradado_sin_nombre_136-2);}.cls-12{fill:#fff;}.cls-13{fill:url(#Degradado_sin_nombre_28);}.cls-14{fill:url(#Degradado_sin_nombre_3);}.cls-15{fill:url(#Degradado_sin_nombre_3-2);}.cls-16{fill:url(#Degradado_sin_nombre_3-3);}.cls-17{fill:url(#Degradado_sin_nombre_10);}.cls-18{fill:url(#Degradado_sin_nombre_10-2);}.cls-19{fill:url(#Degradado_sin_nombre_35);}.cls-20{fill:url(#Degradado_sin_nombre_22);}.cls-21{fill:url(#Degradado_sin_nombre_20);}</style><radialGradient id="Degradado_sin_nombre_34" cx="411.34" cy="360.03" fx="242.14334889629058" fy="126.04364755575699" r="340.23" gradientUnits="userSpaceOnUse"><stop offset="0" stop-color="#6dc8e1"/><stop offset="0.08" stop-color="#05b0e7"/><stop offset="0.12" stop-color="#07a3dd"/><stop offset="0.26" stop-color="#0c7abc"/><stop offset="0.4" stop-color="#1059a0"/><stop offset="0.54" stop-color="#133e8b"/><stop offset="0.69" stop-color="#152c7c"/><stop offset="0.84" stop-color="#172173"/><stop offset="1" stop-color="#171d70"/></radialGradient><linearGradient id="Degradado_sin_nombre_136" x1="358.82" y1="447.57" x2="358.82" y2="485.87" gradientTransform="matrix(1, 0, 0, -1, -18.57, 794.06)" gradientUnits="userSpaceOnUse"><stop offset="0.09" stop-color="#24488e"/><stop offset="0.47" stop-color="#0d75f1"/><stop offset="1" stop-color="#6dc8e1"/></linearGradient><linearGradient id="Degradado_sin_nombre_175" x1="3.65" y1="646.08" x2="78.21" y2="596.08" gradientTransform="matrix(1.28, 0.05, 0.04, -1.15, 12.97, 926.97)" gradientUnits="userSpaceOnUse"><stop offset="0" stop-color="#0ed1fa"/><stop offset="0.05" stop-color="#0ec8f1"/><stop offset="0.14" stop-color="#0eaed8"/><stop offset="0.25" stop-color="#0f85af"/><stop offset="0.36" stop-color="#0f5681"/><stop offset="0.5" stop-color="#11477d"/><stop offset="0.66" stop-color="#133979"/><stop offset="0.78" stop-color="#171d70"/></linearGradient><linearGradient id="Degradado_sin_nombre_136-2" x1="399.8" y1="516.72" x2="313.41" y2="501.39" xlink:href="#Degradado_sin_nombre_136"/><linearGradient id="Degradado_sin_nombre_28" x1="165.05" y1="546.86" x2="223.6" y2="618.82" gradientTransform="matrix(0.82, 0.03, 0.04, -0.99, -113.72, 799.79)" gradientUnits="userSpaceOnUse"><stop offset="0" stop-color="#878787"/><stop offset="0.32" stop-color="#bdbdbd"/><stop offset="0.39" stop-color="#cecece"/><stop offset="0.5" stop-color="#e4e4e4"/><stop offset="0.63" stop-color="#f3f3f3"/><stop offset="0.78" stop-color="#fcfcfc"/><stop offset="1" stop-color="#fff"/></linearGradient><linearGradient id="Degradado_sin_nombre_3" x1="255.38" y1="401.42" x2="255.39" y2="401.42" gradientUnits="userSpaceOnUse"><stop offset="0" stop-color="#0ed1fa"/><stop offset="0.05" stop-color="#0ec8f1"/><stop offset="0.14" stop-color="#0eaed8"/><stop offset="0.25" stop-color="#0f85af"/><stop offset="0.36" stop-color="#0f5681"/><stop offset="0.5" stop-color="#11477d"/><stop offset="0.66" stop-color="#133979"/><stop offset="0.78" stop-color="#171d70"/><stop offset="0.99" stop-color="#0e91f6"/></linearGradient><linearGradient id="Degradado_sin_nombre_3-2" x1="247.76" y1="405.01" x2="255.38" y2="405.01" xlink:href="#Degradado_sin_nombre_3"/><linearGradient id="Degradado_sin_nombre_3-3" x1="5.57" y1="452.6" x2="795" y2="452.6" xlink:href="#Degradado_sin_nombre_3"/><linearGradient id="Degradado_sin_nombre_10" x1="597.37" y1="1151.92" x2="629.41" y2="1151.92" gradientTransform="matrix(0.52, -0.82, -0.81, -0.51, 1244.23, 1274.24)" gradientUnits="userSpaceOnUse"><stop offset="0" stop-color="#0d75f1"/><stop offset="0.15" stop-color="#64d0e9"/><stop offset="0.28" stop-color="#6dc8e1"/><stop offset="0.37" stop-color="#77bfd8"/><stop offset="0.54" stop-color="#95cee2"/><stop offset="0.91" stop-color="#e2f5fa"/><stop offset="0.93" stop-color="#e5f7fb"/><stop offset="0.99" stop-color="#d6eff6"/></linearGradient><linearGradient id="Degradado_sin_nombre_10-2" x1="731.77" y1="494.31" x2="779.43" y2="494.31" gradientTransform="matrix(1, 0, 0, -1, -18.57, 794.06)" xlink:href="#Degradado_sin_nombre_10"/><linearGradient id="Degradado_sin_nombre_35" x1="34.53" y1="233.51" x2="795.67" y2="233.51" gradientTransform="matrix(1, 0, 0, -1, -18.57, 794.06)" gradientUnits="userSpaceOnUse"><stop offset="0.08" stop-color="#11477d"/><stop offset="0.39" stop-color="#0eb7f9"/><stop offset="0.52" stop-color="#0ed1fa"/><stop offset="0.71" stop-color="#0e9ef7"/><stop offset="0.84" stop-color="#0e77f5"/><stop offset="0.99" stop-color="#004482"/></linearGradient><linearGradient id="Degradado_sin_nombre_22" x1="229.08" y1="583.17" x2="311.51" y2="586.11" gradientTransform="matrix(1, 0, 0, -1, -18.57, 794.06)" gradientUnits="userSpaceOnUse"><stop offset="0" stop-color="#878787"/><stop offset="0.34" stop-color="#bdbdbd"/><stop offset="0.36" stop-color="#c4c4c4"/><stop offset="0.48" stop-color="#dedede"/><stop offset="0.6" stop-color="#f0f0f0"/><stop offset="0.73" stop-color="#fbfbfb"/><stop offset="0.86" stop-color="#fff"/></linearGradient><linearGradient id="Degradado_sin_nombre_20" x1="185.19" y1="292.29" x2="292.98" y2="311.61" gradientTransform="matrix(1, 0, 0, -1, -18.57, 794.06)" gradientUnits="userSpaceOnUse"><stop offset="0.01" stop-color="gray"/><stop offset="0.1" stop-color="#a0a0a0"/><stop offset="0.35" stop-color="#bdbdbd"/><stop offset="0.42" stop-color="#d0d0d0"/><stop offset="0.52" stop-color="#e5e5e5"/><stop offset="0.64" stop-color="#f4f4f4"/><stop offset="0.78" stop-color="#fcfcfc"/><stop offset="1" stop-color="#fff"/></linearGradient></defs><path class="cls-1" d="M765.37,366.75a244.87,244.87,0,0,0,0-27.63c-.09-1.29-.18-2.57-.28-3.82q-.58-9.78-1.82-19.48l-.14-1.49c-.15-1.13-.33-2.31-.53-3.52-.66-4.66-1.21-8.27-1.85-11.73a252.29,252.29,0,0,0-10.62-40.38q-.87-2.58-1.78-5.14c-1.91-5.49-3.51-9.65-5.7-14.65l-.53-1.26-1.25-3.07a232.58,232.58,0,0,0-11.09-22.81c-1.35-2.56-2.95-5.34-4.62-8.15l0,0-.19-.32-.76-1.3-.61-1q-2.5-4.22-5.41-8.85l-.33-.54-.17-.24c-.35-.56-.7-1.12-1.06-1.68-1.23-1.94-2.59-4-4-6-2.65-4-5.3-7.57-7.68-10.78l2.49,3.61c-6-8-12.59-16.16-18-22.87h.06q-3.58-4.11-7.38-8.07c-3.49-3.8-6.23-6.63-9.38-9.68-.88-.88-1.75-1.73-2.6-2.54L668.86,132l-1.09-1-1.57-1.42-3-2.77c-1.8-1.65-3.65-3.32-5.55-5-.38-.34-.76-.68-1.14-1l-.38-.36.18.18-.57-.5-.94-.84h0v0l-3.33-2.81-1.19-.94q-5.09-4.23-10.66-8.46l-.2-.16.1.08q-2.82-2.15-5.78-4.29c-1.71-1.25-3.43-2.48-5-3.57l-.46-.33h0l-.15-.1c-1.32-.91-2.66-1.83-4-2.74L623,95.24l.45.31q-2-1.3-4-2.61l-1.91-1.24-.4-.27-.51-.31c-3.64-2.32-6.72-4.18-9.6-5.92l0,0-1.84-1.08c-2.29-1.36-4.88-2.83-7-4-3.74-2.07-6.71-3.63-9-4.83l0,0c-1.11-.59-2.64-1.35-3.74-1.91.77.39,1.51.78,2.25,1.17-2.4-1.26-3.82-2-6.51-3.25l-.08,0q-3.9-1.91-7.84-3.72h0l-.93-.42-1.36-.6c-2-.88-3.93-1.76-5.92-2.61l-.14-.06.11,0c-2.19-1-4.4-1.87-6.61-2.77v0l-2.6-1-2.57-1-1.81-.72-1.65-.61-.17-.07-5.44-2,1.4.53c-1.82-.66-3.64-1.3-5.47-1.94l-.68-.23L537,53.08l-.39-.13-.83-.27c-2.08-.7-4.18-1.38-6.28-2l-.37-.12L528,50.17c-1.73-.54-3.34-1-5.4-1.62l-1.33-.4-2.16-.6c-1.2-.33-2.4-.67-3.61-1l-2.32-.65-1-.26-2.25-.59c-1.55-.4-2.83-.72-4.74-1.17l-.91-.23L503,43.37l-2-.47-.89-.2c-1.7-.39-3.4-.77-5-1.11h0l-.6-.13c-2.79-.6-5.27-1.11-7-1.42-3.92-.75-7.6-1.39-11.1-1.95l-.21,0-.25,0q-6.14-1-12.33-1.77l-.11,0,.09,0L461.73,36c-3.51-.47-7.92-.9-11.53-1.24l-1.14-.11-1.34-.11h-.15l-.68-.08-.82,0-1.53-.13c-3.64-.3-7.41-.56-11.31-.75l1.36.1q-4.87-.27-9.67-.4l-2.21-.08-.66,0h-.49c-5.39-.18-12.56-.15-18,0a392.66,392.66,0,0,0-60.89,6.41l-.29,0-.09,0a324.68,324.68,0,0,0-35.21,8.26l-.66.21a369.85,369.85,0,0,0-51,18.53l-1.71.77-.77.36a357.62,357.62,0,0,0-47,25.55l-1.72,1.11a356.31,356.31,0,0,0-44.37,34l-.2.19a262,262,0,0,0-24.14,24.11q-5.16,5.68-10,11.62c-8.4,10.1-16,20.19-20.78,28.08l-.08.13-2.29,3.78c-.66,1.08-1.33,2.17-2,3.28l.85-1.54L90.85,215.61l.13-.28-2.71,5.52-1.78,3.62c-2,3.76-3.84,7.46-5.53,11l1.12-2.56-1.91,4.21c-.43.91-.85,1.82-1.26,2.71a2.44,2.44,0,0,1-.1.24,276.48,276.48,0,0,0-14.68,41.16c0,.05,0,.11,0,.16a293.23,293.23,0,0,0-9.39,50.24c-.11,1-.21,2.07-.3,3.07q-.21,2.35-.36,4.83a292.38,292.38,0,0,0,.58,48.17c0,.12,0,.24,0,.36,1,15,4.29,31.26,8,45.53.61,2.35,1.24,4.7,1.91,7q2.66,9.61,6.05,19c1.55,4.4,3,8,4.06,10.52h0v0c1.81,4.12,3.84,8.68,6,13.36,1.33,3,2.63,5.83,3.79,8.43l1.73,3.16c3.15,6.37,6.43,12.54,9.64,17.76h0c2.42,4.15,5.43,8.81,8.59,13.46,4.43,6.69,8.31,12.11,11.84,16.74,3.89,5.22,9.25,11.54,13.36,16.33l0,.05c25.63,29.9,98.92,101.18,226.07,117.33,49.52,6.18,88.48,1.53,99.23-.06l4-.59q14.49-2,28.76-5.09a361,361,0,0,0,45.81-12.88l.61-.19,2-.72c1.54-.55,3.09-1.13,4.66-1.71l1.56-.58,1.63-.62,2.71-1.05,1.11-.43.37-.15c5.23-2.05,10.64-4.29,16.28-6.75a360.68,360.68,0,0,0,49.57-26.9c3.23-2.09,6.65-4.45,10.14-7q4.61-3.21,9.11-6.56l2.25-1.57c2-1.5,4.11-3.2,6.29-5q7.13-5.64,14-11.63l2.72-2.26c8.68-7.28,23.82-22.66,37.9-40l.35-.4.23-.31,1.33-1.66q5.71-7,10.87-14.48c1.86-2.66,3.65-5.31,5.34-8,2-3.12,4-6.51,6.07-10.06,2.69-4.52,5.34-9.06,7.69-12.92l6.89-14c.85-1.7,1.68-3.39,2.51-5.09l2.52-5.13c.26-.61.53-1.23.79-1.86.08-.15.15-.31.23-.46a168.41,168.41,0,0,0,9.5-25l.54-1.94c1.53-4.86,3.07-10.56,4.51-15.9l2.11-7.43c.31-1.32.62-2.72.92-4.16q2.25-9.7,3.65-19.59c.23-1.42.45-2.8.63-4.15,1-7.53,1.89-16.31,2.36-25.15l0-.15C765.35,367.07,765.36,366.91,765.37,366.75Z"/><path class="cls-2" d="M446.56,51.09c7.9-.16,10.26-.2,10.94-.76V50c-.1-.29-.15-.49-.2-.68q-7.76-.63-15.48-1l.11.36c.5.44,1.73.6,5.76.77l3.09.16c.08.23.17.46.27.68q-13-.61-25.92-.38a8.93,8.93,0,0,1-.35-.88h3.74c4.24,0,4.55-.19,4.91-.41a3.1,3.1,0,0,0-.1-.53q-6.12-.15-12.23-.1c-3.23,0-3.71.11-4.26.36l-.12.27.1.29q-4.05.09-8,.28a13.87,13.87,0,0,1-.74-3.54q4-.06,8.06-.08v.21c.39.49.45.56,4.15.58q16.77.08,33.6,1.53a20.33,20.33,0,0,0,4.41.22l.13-.31c2.71.29,5.41.59,8.11.93a9,9,0,0,0,1.07,3.49l-18.06-.36-3-.83"/><path class="cls-2" d="M441.17,57.85c-14.26.83-18,.32-19.18-.69-1.75-3.65,33.83-4,39.48-1.93.54.18.54.3.57.5-.65.45-1.39,1-20.87,2.12m2.43,2.09c26.53-2.13,27.12-3.32,27.4-3.9a1.86,1.86,0,0,0-.49-.59c-9.15-4.45-59.86-4.53-57.72,2.17,1.54,4.72,23.55,2.94,30.8,2.36"/><path class="cls-2" d="M463.08,64.62c-6.23.74-7.55-.16-8.23-.72l-1.3-1.09q6.69-.75,13.34-1.24l1.25,1c.58.5,1.45,1.24-5.05,2M433,74.59q3.28-.91,6.59-1.77L439,72.4a1.53,1.53,0,0,1-.35-.41c.18-.42.26-.6,2.08-1.5l9.48-4.07c6.59,1.83,28.33-1.13,27-3.7a1.35,1.35,0,0,0-.2-.27c-1.53-1.2-2.83-2.32-4-3.42-2.54,0-5.07.12-7.61.22l.23.22.2.07c-.25.39-.25.39-3.45.58q-14.81.91-29.72,3.15c-3.27.48-4,.59-5,.13l-.62-.54q-3.68.54-7.37,1.15,2.49,2.34,5.4,4.71c2.34-.5,4.7-1,7.07-1.43l-.51-.41a.87.87,0,0,1-.22-.53c.59-.31.76-.41,4.21-1s6.88-1.08,10.3-1.56l.8.67c-5.46,2-12.83,4.57-18.1,7Q430.75,73,433,74.6"/><path class="cls-2" d="M487.11,74l-.54-.3c-.68-.24-1.21-.3-3.89.56q-11.07,3.6-22.29,8.38c-1.81.77-2.8,1.21-1.9,1.83l.94.51c-1.79.83-3.56,1.66-5.36,2.54q-4.24-2.36-8.21-4.7c1.94-.78,3.88-1.54,5.82-2.26l.57.33c1.09.59,1.66.58,4.42-.44q12.39-4.75,25.24-8.36c-11.47,2.7-26.7,6.48-38.08,9.51l-2.2-1.35c9.66-3.95,22.77-8.81,32.8-11.81q-14,2.77-27.62,6.82c-1.4.44-1.58.57-1.82.9a.75.75,0,0,0,.23.47c.33.23.56.37.8.52q-3.11,1-6.24,2c-2.09-1.34-4.1-2.69-6-4,2.18-.63,4.36-1.24,6.54-1.81l.55.38c1,.6,1.66.58,4.92-.32q13-3.47,26.05-5.82c2.49-.44,2.91-.51,3.26-.83a3.59,3.59,0,0,0-.62-.54c2.16-.33,4.29-.64,6.5-.9,1.19.83,2.46,1.67,3.77,2.5-7.41,2.18-17.35,5-24.53,7.74,8.32-1.78,19.41-4.19,27.78-5.76q2.13,1.27,4.42,2.52-2.6.81-5.24,1.69"/><path class="cls-2" d="M478.34,83l10.83-3.86-7.82,5.4-3-1.52m-3.22,15.13c1.36-1.08,2.71-2.13,4.06-3.17-.89-.44-1.67-.83.62-3a196.22,196.22,0,0,1,19.77-16l-2.4-1.21c-9.69,3-22.6,7.17-32.26,10.34-2.75.9-3.39.95-4.57.37-1.7.83-3.53,1.68-5.29,2.56,2.3,1.25,4.67,2.5,7.06,3.74,1.63-.94,3.26-1.88,4.87-2.79C464.9,88,464.9,88,472.46,85.17c1.63.83,3.28,1.66,5,2.49L475,89.74c-2,1.66-2.45,2-4.49,1.08-1.54.94-3.1,1.91-4.66,2.91q4.53,2.25,9.27,4.5"/><path class="cls-2" d="M345.64,76.33c-11,3.28-17.74,3.87-19.93,1.73C322.22,72.31,355,63.71,362.9,66c1.1.39,4.25,1.67-3,5.17a115,115,0,0,1-14.27,5.14m4.27,3.85c8.77-2.83,28.53-10.08,22.41-16-11.45-7.44-58,5.12-55.94,15.11,1.09,5.29,12,7.84,33.53.9"/><path class="cls-2" d="M375.92,87.66c-6.24,2.28-8.83.3-10.07-.66-.88-.7-1.75-1.41-2.58-2.15q6.53-2.44,13.09-4.65c.87.73,1.76,1.47,2.68,2.19,1.27,1.07,3.38,2.84-3.1,5.23m-25.85,21.19q3.18-1.74,6.38-3.41l-1-.71c-1.15-.9-1.24-1.51.47-3.58l7.27-8.52c11.28,3.77,29.09-5.17,27.13-9.79a6.19,6.19,0,0,0-1.74-2.13c-3.33-2.62-6.4-5.22-9.12-7.8-2.51.69-5,1.41-7.48,2.15l.52.49.32.25c.59.78,0,1.08-2.88,2q-14.55,4.65-28.87,10.39c-3,1.22-4.15,1.67-5.57.54l-.76-.7c-2.34.94-4.69,1.9-7,2.91q4.19,4,9.13,7.95,3.38-1.6,6.72-3.16l-.91-.73c-1.25-1.13-.69-1.49,3.21-3.19q4.94-2.1,10-4.07l1.49,1.24c-4.43,4.32-10.54,10-14.58,14.55q3.5,2.66,7.27,5.3"/><path class="cls-2" d="M419,107.18l-1.19-.66c-1.33-.6-2.07-.72-4.89,1q-11.26,7-22.5,15c-1.74,1.25-2.87,2.08-1.16,3.16l1.63.9-5.35,4.07q-7.17-3.94-13.9-8,2.85-2,5.75-3.84l1,.6c1.87,1,2.58,1.08,5.37-.74q12.66-8.4,25.39-15.62c-12.32,5.16-28.68,12.16-40.86,17.56l-3.71-2.28c8.67-7.23,20.52-16.58,29.81-23.1q-13.73,6.48-27.28,14.1c-2,1.2-1.8,1.86-.65,2.62l1.2.77q-3,1.8-6.05,3.66-5.33-3.41-10.22-6.81,3.15-1.77,6.35-3.45l.93.65c1.57,1,2.23,1,5.67-.74q12.76-6.84,25.69-12.7c2.49-1.14,3.48-1.63,2.44-2.52l-1-.72,6.52-2.7c2.8,2,5.73,3.9,8.81,5.85-7,4.85-16.26,11.22-22.77,16.42,9-3.61,21-8.41,30.07-11.87q5,3,10.33,5.9c-1.81,1.09-3.63,2.2-5.4,3.36"/><path class="cls-2" d="M415.76,124.09l12.58-6.27L421.49,127c-1.92-.95-3.82-1.92-5.72-2.88m5.33,24.52,4.3-4.57c-2.07-1-2.49-1.36-.83-4.63,4.27-8.38,11.33-19,16.8-26.75l-5.55-2.82c-11.18,5.15-26.07,12.06-37.23,17.24-2.88,1.34-3.85,1.56-5.95.46-1.76,1.35-3.53,2.72-5.29,4.1q5.82,3.17,11.94,6.31c1.65-1.44,3.3-2.86,4.95-4.28-3.67-1.9-3.67-1.9,4.89-6.23q4.46,2.3,9.06,4.57L416,135.28c-1.79,2.71-2.32,3-5.76,1.45-1.58,1.45-3.18,2.91-4.76,4.38q7.69,3.81,15.66,7.52"/><path class="cls-2" d="M467.88,140.09c2.34-11.64-2.37-9.89-2.38-9.86a5.45,5.45,0,0,0-1.05,1q-7.38,9-15,18.95c-2.53,3.35-2.45,3.38,1.64,5.11q-1.77,2.44-3.51,5-8.78-3.67-17.23-7.44l4-4.71,1,.44c2.63,1.14,3.22,1.13,5.66-1.76Q449.38,137,457.49,128c.47-.52.92-1,.57-1.29s-.93-.69-3-.49c-3.23.28-5.27,1.36-10.23,4L442.38,127l14-8.63,2.49,1.13-.7,1.09q7.57,3.4,15.46,6.67l1.12-.85,2.66,1.08-4.37,12.78-5.28-.14"/><path class="cls-2" d="M292.63,131.68c-5.81,3.59-9.46.79-11.22-.56-1.25-1-2.45-2-3.63-3q6-3.9,12.05-7.56c1.25,1,2.54,2.14,3.88,3.18,1.75,1.45,5,4.15-1.08,7.92m-20.18,30.51q2.87-2.43,5.77-4.82l-1.3-.9c-1.58-1.19-1.88-2-.77-5l4.67-12.14c13.66,5,28.86-7.21,25.95-14.56a12.27,12.27,0,0,0-3.45-4.09c-5-3.9-9.46-7.76-13.51-11.56-2.33,1.25-4.62,2.53-6.91,3.8l.76.72.45.37c1.09,1.19.12,1.85-2.17,3.22q-13.41,7.91-26.26,16.72c-2.65,1.82-3.64,2.46-5.36,1.24l-1.2-1.11c-2.1,1.45-4.2,2.9-6.27,4.41q5.53,5.24,12.08,10.53,3-2.33,6.08-4.57l-1.2-1c-1.74-1.49-1.25-2.05,2.27-4.57q4.49-3.19,9-6.23l2.05,1.69c-3.16,6.23-7.57,14.5-10.32,20.9q4.64,3.5,9.63,7"/><path class="cls-2" d="M351.25,159.67l-1.72-1c-2-1-3.09-.75-5.53,1.39q-10.81,9.81-21.33,20.41c-1.66,1.7-2.67,2.72-.33,4.19l2.15,1.19-5,5.3q-9.53-5.23-18.37-10.52,2.64-2.58,5.31-5.11l1.39.91c2.56,1.47,3.45,1.29,5.93-1q11.76-11.25,23.88-21.61c-12.36,7.16-28.73,16.82-41,24.23L291.75,175c7.22-9.92,17.18-23,25.1-32.44Q304,152.28,291.52,163c-1.61,1.49-1.57,2.35.19,3.57l1.6,1-5.53,5q-7-4.52-13.55-9c1.91-1.62,3.83-3.24,5.76-4.84l1.25.87c2,1.32,2.91,1.37,5.94-1.12Q298.82,148.82,311,140c2.36-1.73,3.12-2.49,1.78-3.66L311,135.1q3-2.13,6.09-4.19,6.24,4.31,13.05,8.63c-5.91,7.07-13.85,16.41-19.38,23.69,9.09-5.1,21.26-11.94,30.39-16.93,4.9,3,10,5.84,15.3,8.75-1.73,1.56-3.48,3.14-5.2,4.73"/><path class="cls-2" d="M353.42,182.94l13.43-8.18L361.35,187q-4-2-7.92-4m13.19,32c1.4-1.91,2.82-3.8,4.21-5.69-3.78-1.82-5.05-2.42,10.81-41.25-2.81-1.38-5.57-2.77-8.31-4.15-11.94,6.8-27.8,15.88-39.66,22.76-2.86,1.63-4,2-6.91.51-1.66,1.76-3.33,3.53-5,5.31q7.73,4.22,15.82,8.36,2.34-2.75,4.71-5.45c-4.94-2.56-4.94-2.56,4-8.1q6.09,3.13,12.38,6.23l-1.77,4.2c-1.4,3.43-2,3.88-6.57,1.77q-2.3,2.73-4.57,5.51,10.11,5,20.74,10"/><path class="cls-2" d="M424.35,206.06c.86-15.07-5.55-12.78-5.62-12.71a6.79,6.79,0,0,0-.87,1.07q-7.75,11.46-15.51,23.58c-2.6,4.07-2.38,4.15,3,6.44q-1.83,3-3.63,6-11.64-4.83-22.84-9.85l4-5.78,1.33.61c3.37,1.45,4.19,1.66,6.74-2q8.34-12.19,16.75-23.69c2.66-3.79-6.36-2.16-6.45-2.14-3,.67-4.07,1.32-9.53,4.46l-4-4.3,15.67-11.06,3.74,1.69-.62,1.44q11.18,5,22.9,9.87l1.37-1.11,3.94,1.61-3.36,16.36-7.06-.44"/><path class="cls-2" d="M459.32,208.22l-2-.7c-2.7-1-3.5-.86-5.17,2.31q-5.93,11.64-12.09,23.87c-1.35,2.72-1.85,3.74,1.39,5l2.6.92-3,6.23q-12.12-4.47-24-9.17c1.13-2,2.25-4,3.38-6l1.89.74c3.38,1.29,4.07,1.07,5.72-1.89q6.61-12.09,13-23.64c1.76-3.21,1.6-3.86-1.2-5l-1.92-.76c1.1-1.88,2.21-3.74,3.32-5.62q10.24,4.08,20.85,8c-.95,1.92-1.9,3.84-2.84,5.79"/><path class="cls-2" d="M288.07,227.57l-2.16-1.18c-2.45-1.27-3.59-.95-5.79,1.71q-9.64,12-18.75,24.57c-1.43,2-2.22,3.11.2,4.78,1.14.65,2,1.12,2.87,1.59-1.47,2.06-2.91,4.14-4.34,6.23Q249,259.14,238.72,253q2.24-3.06,4.52-6.11l1.58,1c2.85,1.63,3.85,1.66,6.05-1.21q10.1-13.48,20.87-26.32c-11.59,8.73-26.9,20.46-38.28,29.48-1.92-1.19-3.84-2.36-5.73-3.55,5.28-12.08,12.77-28,18.83-39.8q-11.22,12.26-21.75,25.32c-1.11,1.49-1.32,2.59.68,4.09l2.19,1.42q-2.34,3-4.64,6-8.23-5.28-15.79-10.53,2.37-3,4.78-5.94l1.47,1c2.49,1.66,3.39,1.41,5.85-1.5q9.79-11.9,20.28-23.16c2.14-2.33,2.76-3.27.75-4.78l-1.91-1.32q2.64-2.73,5.31-5.42Q251.52,197,260,202.45c-4.57,8.78-10.75,20.48-14.94,29.43,8.57-6.35,19.95-14.82,28.68-21q9.18,5.46,19.06,10.89c-1.58,1.94-3.15,3.87-4.71,5.81"/><path class="cls-2" d="M295.29,255.63,308.67,246l-3.87,14.47q-4.8-2.4-9.51-4.81M315.07,293q1.92-3.22,3.86-6.44c-4.8-2.3-5.4-2.6,5.12-48.45q-5.22-2.58-10.35-5.2c-11.83,8-27.58,18.82-39.32,27-2.91,2-4,2.33-7.3.61-1.43,2.08-2.88,4.16-4.3,6.24q9,4.88,18.47,9.75c1.38-2.11,2.75-4.22,4.09-6.33-5.82-3-5.82-3,3-9.48q7.21,3.78,14.72,7.45L301.79,273c-1,4-1.56,4.44-6.92,2-1.36,2.08-2.73,4.22-4.11,6.33q11.83,5.9,24.22,11.64"/><path class="cls-2" d="M379.53,283.85c-.63-18-8-15-8.08-14.87a6.5,6.5,0,0,0-.9,1.25Q362.93,283.4,355.47,297c-2.5,4.57-2.37,4.64,4.09,7.35l-3.5,6.6c-9.06-3.77-17.95-7.55-26.64-11.48q1.86-3.26,3.74-6.5l1.57.7c4,1.73,4.9,1.95,7.31-2.16q7.9-13.77,16-27.1c2.62-4.47-7.61-2.8-9.4-2.23-2.33.73-3.06,1.12-8.71,4.63l-5.26-5.14L351,248.82l4.66,2.11-.46,1.72q14,6.25,28.53,12.29l1.5-1.23,4.94,2-2.23,18.87-8.36-.72"/><path class="cls-2" d="M421.31,287.44l-2.43-.85c-3.39-1.19-4.27-1.14-6.05,2.46q-6.33,13.11-12.69,26.51c-1.38,3-1.91,4.09,1.9,5.57l3.07,1.08q-1.58,3.38-3.12,6.75-14.13-5.19-28-10.7l3.36-6.65,2.22.87c4,1.53,4.78,1.3,6.42-2q6.64-13.33,13.3-26.39c1.81-3.62,1.58-4.43-1.9-5.79l-2.37-.94c1.12-2.1,2.26-4.28,3.4-6.4q12.81,5.08,25.95,9.92c-1,2.14-2,4.36-3.08,6.53"/><path class="cls-2" d="M470.49,338.42c-31.53,17.72-59.29-6.57-52.79-28.5,4-13.54,19.33-24.63,39.77-18.43a31.81,31.81,0,0,1,12.67,7.42l2.07-1.66,5.63,1.77-.78,19.43-8.31-.42c-5.72-27.4-25.58-19.19-31.08-11.47-10.47,14.58-1.39,33.47,19,29.09a35.11,35.11,0,0,0,11.09-4.53l5,6.12c-.67.39-1.55.91-2.23,1.29"/><path class="cls-3" d="M245.34,338.1l12.31-10.63-2,15.91q-5.23-2.61-10.35-5.23M270,378.42c1-2.31,2.14-4.6,3.23-6.88-5.38-2.57-5.53-2.64-.68-52.81q-5.86-2.91-11.57-5.82c-10.92,8.9-25.35,20.89-36.05,30-2.6,2.24-3.64,2.61-7.15.76l-3.33,6.83q9.57,5.22,19.63,10.39,1.62-3.44,3.27-6.85c-6.24-3.22-6.24-3.22,1.63-10.33q7.83,4,15.88,8.06l-.55,5.26c-.52,4.26-1,4.83-6.73,2.16-1.11,2.29-2.18,4.57-3.26,6.86q12.55,6.26,25.73,12.35"/><path class="cls-3" d="M336.24,369.09c-2-19.19-9.78-16.17-9.86-16.09a7.68,7.68,0,0,0-.83,1.34q-7,14.13-13.66,28.46c-2.22,4.84-2.13,4.89,4.83,7.8-1,2.31-2.11,4.61-3.15,6.91q-14.4-6-28.31-12.21c1-2.31,2.11-4.57,3.2-6.88l1.66.75c4.24,1.85,5.22,2.07,7.34-2.26q6.9-14.61,14.18-29c2.28-4.72-8.16-3.3-11.06-2.22-1.63.67-2.17.83-7.84,4.72l-6.07-5.63,15.68-13.94,5.21,2.37-.29,1.88c10.39,4.67,21.06,9.26,31.89,13.74l1.52-1.36,5.53,2.27L345.15,370l-9-.87"/><path class="cls-3" d="M381.66,373.49l-2.7-.95c-3.7-1.3-4.79-1.28-6.45,2.52q-6.3,13.79-12.51,27.67c-1.35,3.08-1.85,4.24,2.24,5.77l3.28,1.15-3,7q-15-5.52-29.72-11.37c1-2.32,2-4.63,3.13-6.92l2.38.95c4.25,1.62,5.05,1.38,6.65-2q6.29-13.89,12.74-27.7c1.76-3.84,1.45-4.65-2.4-6.23l-2.64-1q1.62-3.44,3.27-6.84,14.34,5.69,29,11.1-1.52,3.46-3.12,6.9"/><path class="cls-3" d="M435.56,427.35c-34.82,17.53-64.64-9.45-56.49-32,4.83-13.35,21-23.39,42.66-16.73,6.59,2.3,9.87,4.25,14.14,8.08l2.32-1.66,6.29,2-1.24,20.06-9.15-.62c-5.7-27.73-27.75-21-34.08-12.52-11.27,15.13-1.58,34.5,20.59,30.32a40.4,40.4,0,0,0,12.12-4.47l5.27,6.32-2.44,1.27"/><path class="cls-3" d="M467.84,424.42l11.88-12.17.67,15.63q-6.28-1.69-12.57-3.46m32.91,34.5q1.45-3.5,2.86-7c-3.82-1-4.57-1.6-5-4-2.83-15.38-2.79-31-4.28-46.51q-7-1.87-14-3.82C469.81,408,455.71,421.72,445,431.93c-2.69,2.52-4,3-8.38,1.66l-3,7q12.3,3.75,24.63,7.23c1-2.32,1.95-4.66,2.91-7-7.64-2.17-7.64-2.17.41-10.09q9.64,2.74,19.29,5.32v5.13c.05,4.35-.73,4.72-7.32,3.07q-1.44,3.51-2.91,7,15.07,4.05,30.06,7.7"/><path class="cls-3" d="M535.44,451.37l-1.58-.33q-11.37-2.46-22.86-5.16c1.13-2.91,2.26-5.82,3.38-8.79q11.4,2.76,22.79,5.15l1.57.34c-1.06,2.91-2.16,5.82-3.27,8.73"/><path class="cls-3" d="M297.92,455.81C294.48,437.47,287,440,287,440.09a5.11,5.11,0,0,0-.7,1.3q-5.58,13.69-10.46,26.71c-1.63,4.41-1.49,4.46,5.29,7.26-.79,2.08-1.55,4.12-2.3,6.15q-14-5.82-27.52-11.85,1.05-3.09,2.15-6.21l1.67.73c4.15,1.81,5.08,2.07,6.57-1.91q4.86-13.36,10.49-27.41c1.66-4.39-7.7-3.78-11.64-2-1,.41-1.56.69-6.23,4.15l-6.45-5.56,13.54-13.69,5.35,2.41-.09,1.9q15.94,7.17,32.62,14.06l1.4-1.33,5.66,2.32.42,19.71-8.83-1"/><path class="cls-3" d="M343,461l-2.75-1c-3.77-1.32-4.78-1.31-6.35,2.28q-5.55,13-10.73,25.35c-1.11,2.73-1.52,3.74,2.46,5.3l3.21,1.13c-.89,2-1.76,4-2.55,6.05q-14.61-5.4-28.9-11.05c.8-2,1.59-4.06,2.4-6.11l2.28.91c4.15,1.6,4.91,1.4,6.15-1.58q5-12.4,10.55-25.54c1.49-3.68,1.15-4.47-2.72-6l-2.68-1.07q1.42-3.22,2.81-6.62,14.65,5.81,29.68,11.35L343,461"/><path class="cls-3" d="M397.49,511.94c-35.44,14.74-64.42-11.6-55.52-32.18,4.82-11,19.84-19.89,41.66-13.12,6.72,2.35,10.08,4.27,14.46,8l2.41-1.58,6.44,2-1.52,18.77-9.2-.83c-5.64-25.86-28.18-21.32-34.91-11.5-10.07,14.69,1.81,31.79,25.05,26.47a42.72,42.72,0,0,0,8.41-2.91l5.18,5.79c-.72.32-1.66.76-2.42,1"/><path class="cls-3" d="M429.68,510.37l12.52-10.69,0,14.13q-6.23-1.69-12.47-3.45m31.13,30.86q1.64-2.88,3.28-5.82c-3.53-.89-4.46-1.35-4.77-3.59-1.95-13.9-.95-27.94-1.51-41.92q-7.2-1.9-14.33-3.92c-10.93,9.2-25.59,21.36-36.75,30.31-2.68,2.11-3.94,2.47-8.27,1.18-1,2-1.94,4-2.91,5.93q12,3.63,23.95,7c1-1.93,2-3.89,3.05-5.88-7.48-2.13-7.48-2.13.65-8.79q9.51,2.7,19.09,5.26l-.21,4.45c-.14,3.6-.7,4.11-7.38,2.4q-1.57,3-3.13,5.87,14.66,4,29.26,7.48"/><path class="cls-3" d="M496,535.88l-1.56-.32q-11.22-2.41-22.56-5.09,2-3.74,4.05-7.52,11.36,2.74,22.67,5.12l1.56.33c-1.37,2.53-2.76,5-4.15,7.48"/><path class="cls-3" d="M553.81,546.65c-7.12,9.33-29.77,14-43.2,2l-3.7,2.63-6.32-1.25L506,532.7l8.9.21c.52,16.21,20,19.12,25.48,13.77,3.74-3.67.5-5.13-15.09-12.22-20.4-9.56-8.34-22.19,2.42-25.2a39.44,39.44,0,0,1,17.09-.76c5.69,1.17,8.49,2.45,12,5.46l2.79-2.12,5.77.89L562,529l-8.38.61c-2.6-16.76-20.42-15.2-22.93-11.78-2.63,3.61.12,4.85,15.38,11.79,5,2.34,15.29,7.2,7.78,17"/><path class="cls-3" d="M310.93,537l-2.55-.89c-3.55-1.25-4.4-1.29-5.6,1.66q-4.15,10.62-7.86,20.37c-.78,2.15-1.07,3,2.5,4.33l2.87,1q-.93,2.38-1.86,4.72-13-4.79-25.67-9.84c.5-1.59,1-3.21,1.53-4.84l2.08.83c3.74,1.43,4.35,1.3,5.2-1.11q3.38-9.88,7.28-20.64c1-3,.66-3.69-3-5.15l-2.5-1,2-5.53c9.11,3.62,18.42,7.17,27.78,10.62-.79,1.8-1.49,3.61-2.21,5.4"/><path class="cls-3" d="M361.77,580.15c-32.83,10.47-58.71-12.47-50.08-29,3.24-6.2,14.62-14.8,36.77-7.89,6.3,2.21,9.47,3.89,13.59,7.13l2.21-1.2,6,1.9-1.34,15.07-8.43-1c-5.53-21.37-27.06-18.43-32.54-9.75-7.79,12.33,5.48,25.77,26.82,20.63a46.45,46.45,0,0,0,4.49-1.36l4.69,4.72-2.19.72"/><path class="cls-3" d="M391.07,580.06,403,572.11l-.5,11.1q-5.7-1.55-11.38-3.15M418,604.77c1.13-1.4,2.27-2.81,3.4-4.25-3.37-.83-3.94-1.25-4.09-2.87-1-10.9.6-21.82.65-32.72q-6.69-1.78-13.38-3.66c-10.27,6.86-24,15.92-34.42,22.59-2.43,1.54-3.57,1.77-7.43.62L360,589q10.62,3.21,21.28,6.23c1-1.43,1.94-2.91,2.91-4.37-6.7-1.91-6.7-1.91.83-6.76q8.59,2.44,17.2,4.79l-.41,3.41c-.29,2.74-.81,3.1-6.83,1.59Q393.5,596,392,598.18q13,3.51,26,6.65"/><path class="cls-3" d="M450.58,601.92l-1.4-.3q-10.12-2.16-20.31-4.64,2.13-2.76,4.26-5.59,10.35,2.46,20.63,4.65l1.43.3q-2.29,2.82-4.58,5.52"/><path class="cls-3" d="M502.63,611.54c-8.16,6.71-29.25,9.53-40,.32l-3.71,1.82-5.62-1.11,6.9-12.75,8.26.42C467,613,485.26,615,490.53,611c3.4-2.54,1-3.57-12.62-9.31-17.75-7.71-5.12-16.21,1.29-18.24,3.32-1.07,10.34-2.6,20.24-1,5.32,1.06,7.84,2.12,10.78,4.57l2.93-1.56,5.41.83-5.63,12.33-8,.26c-.1-12.89-17.31-12.23-20.14-9.56s-.46,3.74,13.05,9.43c4.32,1.87,13.3,5.79,4.75,12.88"/><path class="cls-3" d="M548.76,595.38l-2.08-.19c-3.09-.28-3.9.06-6.24,2.55q-8.75,9.45-18,17.82c-2,1.79-2.75,2.52.17,2.85l2.34.22c-1.57,1.37-3.13,2.7-4.73,4q-10.59-1-22.05-2.49c1.49-1.33,3-2.7,4.44-4l1.87.25c3.33.41,4.1.19,6.32-1.87q8.94-8.41,17.53-17.91c2.35-2.66,2.22-3.13-1-3.58l-2.25-.29q2.1-2.41,4.16-4.89,12.39,1.65,23.86,2.71Q551,593,548.77,595.4"/><path class="cls-3" d="M354.73,630l10.4-5-1.06,7.58c-3.12-.84-6.24-1.71-9.36-2.59m20.37,17.12c1.12-.85,2.21-1.66,3.3-2.51-3-.74-3.09-1.09-3.13-2a4.07,4.07,0,0,1,.07-.61,161,161,0,0,0,3-21.52c-3.8-1-7.58-2-11.38-3.11-8.87,4.37-20.75,10.09-29.72,14.25-2,.91-3,1-6.08.09-.74,1-1.49,1.89-2.22,2.8q8.43,2.58,16.93,5c.87-.86,1.74-1.76,2.63-2.68-3.67-1-5.19-1.55-2.86-2.65,1.16-.56,2.71-1.25,3.88-1.77q7,2,14,3.88l-.57,2.21c-.45,1.76-.87,2-5.76.74-1,.91-1.91,1.82-2.83,2.63,6.9,1.87,13.83,3.6,20.69,5.3"/><path class="cls-3" d="M402.7,646.67l-1.15-.24q-8.21-1.75-16.51-3.74,2.11-1.66,4.21-3.51,8.47,2,17,3.83l1.16.24Q405,645,402.7,646.58"/><path class="cls-3" d="M444.88,654.42c-8.31,3.72-26.66,4.71-33.77-1.13l-3.45.94-4.47-.88,7.9-7.64,7,.56c-3.32,8.1,11.92,9.45,16.7,7.48,3.45-1.44,1.8-2.08-8.86-6.21-14.1-5.65-.6-10.64,0-10.85,2.13-.77,10-3.13,21.91-1.19,4.46.87,6.57,1.7,8.69,3.39l2.87-1,4.59.7-7.26,8-6.93-.06c2.52-8.26-13.18-8.36-15.69-6.92-2.94,1.72-.77,2.55,9.63,6.59,3.33,1.35,10.23,4.11,1.25,8.21"/><path class="cls-3" d="M488.43,645.36l-1.76-.17c-2.57-.23-3.39,0-6,1.53q-9.75,5.79-20.09,10.62a9.71,9.71,0,0,0-2.08,1.1v.23a2.72,2.72,0,0,0,1.34.34l1.89.17q-2.6,1.13-5.21,2.19-8.43-.79-17.56-2c1.63-.68,3.21-1.46,4.8-2.24l1.51.21a8.05,8.05,0,0,0,5.76-.94,217.8,217.8,0,0,0,19.39-10.72c2-1.25,2.88-1.9.67-2.26l-.73-.11-1.9-.25q2.34-1.54,4.66-3.14,10.53,1.41,20.3,2.31-2.49,1.6-5,3.1"/><path class="cls-3" d="M499,658.47c-9.86,3.74-26.93,6.39-29.33,2.64l-3.86,1-3.55-.25,12.33-6.65,6-.21c-2.27,1.9-5.11,5.14,1.36,5.46,4.83.2,12-1.89,10.74-3.17-.36-.37-.36-.37-5.86-2.05-6.65-2.33-1.39-5.62,4.19-8a55.82,55.82,0,0,1,21.82-4c3.42.22,4.83.66,5.74,1.79l2.94-1.12c1.2,0,2.37,0,3.55,0l-10.81,7.19-5.78.72c4.92-4.6.06-5.19-3.27-5.13-4.57.08-8.95,1.84-8,3.26.32.48.32.48,6.24,2.3,2.07.73,5.56,1.83-2,5.19-.72.32-1.64.67-2.43,1"/><path class="cls-3" d="M330.55,628.8c-27.21,5.71-48.17-11.87-40.81-23,2.59-4,11.75-9.14,29.51-3.54A40.51,40.51,0,0,1,330.84,608l1.88-.8,5.12,1.62-1.25,10.79-7-1.05c-4.46-14.91-23.15-14.93-27.4-7.65-4.74,8.31,6.88,18.86,26.28,14.21l3.78,3.4-1.8.42"/><path class="cls-4" d="M460,43.42a.2.2,0,0,1,.13-.14c-.29-.29-.36-.35-4.6-1Q439.73,39.82,424,38.65c-3.74-.26-4.29-.26-5-.09a2.2,2.2,0,0,0-.41.33c-2.62-.13-5.25-.23-7.9-.28a14,14,0,0,1,2.73-2.25c2.61.14,5.22.3,7.75.47a1.58,1.58,0,0,1-.24.15l.09.27a29.39,29.39,0,0,0,3.85.4q15.68,1.24,31.38,3.82c4.7.78,4.78.8,5.34.69a1,1,0,0,1,.22-.13c2.58.47,5.18,1,7.78,1.48A8.43,8.43,0,0,0,468,44.76q-4-.72-7.94-1.37"/><path class="cls-4" d="M458.47,47.41v-.2c-.37-.28-.51-.39-5.15-.87a408,408,0,0,0-45.17-2.15,8.23,8.23,0,0,1,.19-1.32c13-.09,30.48.13,43.47,1q-15-1.89-29.92-2.61c-3.52-.18-4.33-.19-4.94.1a1.19,1.19,0,0,0-.15.35c-2.64-.08-5.29-.12-8-.18a9.27,9.27,0,0,1,1.35-2.32c2.64.08,5.27.18,7.9.28,0,.07-.11.14-.15.21.22.34.26.39,3.89.6q16.53.91,33.14,3.24a25,25,0,0,0,4.57.53.84.84,0,0,0,.23-.23q4,.63,8,1.34a5.5,5.5,0,0,0-.76,1.25c-10.29-.91-24-2.21-34.43-2.49q10.49.56,20.89,1.71c4.32.49,4.65.51,5.18.39l.1-.24c2.7.35,5.41.73,8.08,1.12a5.91,5.91,0,0,0-.2,1.51c-2.7-.37-5.4-.66-8.1-1"/><path class="cls-4" d="M507.26,90.55c.91-1.82,3.3-6.65,1.1-6a3.37,3.37,0,0,0-1.07.76c-4.38,3.9-8.8,8.22-13.38,12.87-2.36,2.36-2.23,2.42.09,3.39-1.06,1.16-2.11,2.36-3.19,3.57q-5.19-2.16-10.21-4.41,1.9-1.7,3.79-3.32l.59.2c1.51.66,1.92.61,4.16-1.39q7.67-6.86,15-12.56a2.74,2.74,0,0,0,.72-.68c-.57-1.32-6.33,1.33-9.09,2.6l-.57-1.75,11.35-5.47,1.05.46-.75.63c2.15,1,4.35,1.93,6.6,2.86l.84-.6,1.13.46-5.13,8.16-3,.21"/><path class="cls-4" d="M521,89.19l-.61-.21c-.83-.29-1.13-.26-2.3,1.6q-4.12,6.56-8.66,14.15c-1,1.69-1.37,2.32,0,2.88l1.16.42c-.7,1.3-1.43,2.62-2.15,4q-5.4-2-10.72-4.11l2.79-3.74.83.29c1.46.51,1.82.38,3.11-1.4q5.2-7.35,10-13.71c1.25-1.67,1.4-2,.52-2.44l-.62-.21c.83-1,1.66-2,2.49-2.94,2,.78,4,1.55,6,2.29l-1.84,3.2"/><path class="cls-4" d="M534.16,112.51c-7.67,9.85-17.08,4.41-18.45-2.42-2-9.72,8.78-23.52,14.88-21.85a5.18,5.18,0,0,1,2.88,2.58l.48-1.08,1.28.45.29,10.3-2.38.41c-.47-3.55-1.7-13-7.21-6.48-5.82,6.89-6.3,19,.83,18.31,1.19-.12,3.59-.83,6.26-4.38l1.84,3.26c-.22.27-.49.65-.73,1"/><path class="cls-4" d="M543.15,108.2l1.29-7.9,2.36,8.9-3.65-1m15.2,19c-.24-1.65-.51-3.27-.78-4.88-2-.51-2-.51-12-29.13-1-.25-1.94-.51-2.91-.79a181.56,181.56,0,0,1-5.34,22c-.7,1.82-1.12,2.08-2.57,1.66-.2,1.48-.4,3-.62,4.49q4.44,1.35,8.89,2.6c.05-1.56.09-3.11.11-4.63-2.54-.73-2.54-.73-1-6.2,2,.58,4,1.14,6,1.66l.83,3.17c.72,2.75.55,3-1.66,2.52.07,1.55.1,3.12.15,4.7,3.58,1,7.25,1.92,10.8,2.78"/><path class="cls-4" d="M565.94,119.63l-.51-.1q-3.66-.8-7.3-1.66c-.41-1.94-.85-3.87-1.3-5.78,2.24.54,4.47,1,6.68,1.51l.44.15q1,2.91,2,5.93"/><path class="cls-4" d="M584.91,123.32c3.4,6.78,1.72,11-3.67,9.21a17,17,0,0,1-6-4.09l.22,2.57-2.34-.46-6.18-14.2,2-.61c7.06,11.67,12.41,12.34,13,10.47,1-3.53-4.59-6.92-10-10.2-9.34-5.77-13.06-19.05-9.64-19.39a2.82,2.82,0,0,1,.58,0c1.2.3,2.16.91,4.2,2.63l-.78-1.52,1.18.18L576,109.27l-1.12,1c-9.09-11.27-9.93-8.31-10-8.21-.77,3,4.25,6,8.66,8.68A29.64,29.64,0,0,1,585,123.34"/><path class="cls-4" d="M578.84,103.37l-.5,0h-.28l-.14.16a10.82,10.82,0,0,0,1.8,2.69q7.39,9.48,14,19.85c1.6,2.47,1.93,3,3,3.33l1,.1q1.66,2.63,3.3,5.31c-3-.27-6-.62-9.22-1-.9-1.78-1.82-3.52-2.75-5.26l.73.1c.54.05.54.05.83,0,.18-.42.13-.64-1.06-2.69q-6-10.35-12.85-19.82c-2-2.81-2.38-3-3.13-3.16l-.55-.07c-1.11-1.53-2.23-3.06-3.36-4.57,1.8.24,3.52.43,5.18.57,1.33,1.51,2.67,3.07,4,4.61"/><path class="cls-4" d="M609,125.15c5.21,6.43,6.32,11.31,2.46,10.91-2.17-.24-4.5-1.93-6.78-3.63l1.32,2.74-1.86-.13L593,120.21l1.08-1c10.61,11.66,13.82,11.22,14.17,10.17.69-2.44-3.35-5.92-12-10.33-9-4.7-20-19.82-17.37-20.49h.23c1,.13,2,.7,4.42,2.31l-1.49-1.69.91,0,12.49,11.51-.21,1.37c-6.31-5.69-10-8.35-11.36-8.14-.34.64-.57,3.19,10.77,9a46.23,46.23,0,0,1,14.29,12.25"/><path class="cls-4" d="M605.84,111c-2.87-2.25-8.23-6.43-10.36-7.29l-.1.25c.27.26.38.37,1.43,1.29q11.31,9.84,21.59,20.66c3.45,3.7,3.45,3.7,4.85,3.5q2.49,2.63,4.9,5.3c-2,.27-4.13.46-6.4.59-1.5-1.78-3-3.55-4.53-5.33l.38,0a1.35,1.35,0,0,0,.7-.25c-.14-.54-.31-.83-2.53-3.38q-10.1-11.1-21.26-21.17a7,7,0,0,0-1.57-1.25l-.21.24c.41.92.41.92,6,7.48l-3-1.61L584.17,98l.74,0,1.35,1.11c1.49-.06,2.88-.23,4.16-.36l-1.31-1.12.62-.09,15.4,11.64.78,1.81"/><path class="cls-4" d="M640.21,131.53a36,36,0,0,1-8.2,2.56q-2.53-2.67-5.11-5.29l.24-.05.31-.1c.22-.53,0-.8-2.91-3.59Q614,115,602.55,105.69c-3-2.39-3.4-2.65-4-2.79l-.44.07c-2-1.56-3.9-3.07-5.89-4.57A19.93,19.93,0,0,0,596.71,97l15,10,1.34,1.91c-8.53-6-9.73-6.09-10.46-6.17-.54.14-.83.23-1.16.33q5.44,4.15,10.69,8.49l.36-.1.25-.17c-.12-.52-.45-.91-3.94-3.65l-1.66-1.29.78-.28q9.33,7.11,18.11,14.74l-1,.37-1.77-1.57c-3.89-3.33-4.21-3.33-4.86-3.25l-.46.14q4.74,4.09,9.29,8.31c2.22,2,2.22,2,2.81,2.14a7.84,7.84,0,0,0,.88-.28c1.39-.83-1.31-4.32-8-10.29l2.78,1.18,14.51,13.9"/><path class="cls-4" d="M607.73,97l-.08.18c.27.42.31.48,3.81,2.66q13.65,8.53,26.33,18c2.33,1.77,2.76,2.08,3.37,2.25a1.18,1.18,0,0,0,.17-.4c2,1.54,4,3.11,6,4.71a9.37,9.37,0,0,1-1.41,2.74q-2.91-2.49-5.9-4.85l.09-.21c.05-.44.07-.61-3-3Q623.56,108.6,608.7,99.24c11.35,8.2,26.13,19.54,36.73,28.55-.2.24-.42.46-.64.68-10.81-8.15-25.46-18.78-36.72-26.42q14.25,9.7,27.25,20.52c2,1.63,2.26,1.66,2.68,1.72a2,2,0,0,0,.35-.25q2.94,2.46,5.85,5a16.81,16.81,0,0,1-2.57,1.78c-1.92-1.72-3.78-3.41-5.7-5.08l.27-.15.12-.26c-.25-.5-.59-.9-3.11-3q-11.91-10-24.86-19.09a18.61,18.61,0,0,0-3.89-2.42,1.14,1.14,0,0,0-.36.15c-2.15-1.48-4.3-2.94-6.48-4.38a8.57,8.57,0,0,0,1.57-1.11c8.79,5.58,20.53,13,29,18.92-8.34-6.1-19.42-14.3-28.15-19.93a5.05,5.05,0,0,0,.73-1.47q3.45,2,6.85,4"/><path class="cls-4" d="M627.1,106.88l-13-8.6,13,7.52a7.88,7.88,0,0,1,.07,1.09m19.74,9.88c-2-1.44-4-2.85-6-4.25l-.29.14c-13.43-7-26-15.22-39.48-22.25a6.54,6.54,0,0,1,.08.88c11.44,7.16,26.41,17.1,37.18,25,2.63,2.17,2.94,2.45,3.15,3,2,1.66,4,3.22,6,4.8a9.51,9.51,0,0,0,.33-2.49c-2-1.53-4-3-6-4.54l-.06.29c-.55-.08-.55-.08-8.05-5.74a9.18,9.18,0,0,0-.12-1.81l4.05,2.67c3.46,2.24,3.81,2.58,4.08,3.39,2,1.47,4.06,3,6.06,4.47a14.08,14.08,0,0,0-.9-3.5"/><path class="cls-4" d="M630.74,101.65c6.86,4.28,14.55,10.22,14.63,11.77-.53,0-.67.06-2.55-.89L646,114.9l.42.86-16.87-11-1.88-1.81c8.94,5.12,10.06,5.49,10.77,5.45,0,0-4.68-6-11.73-6.82-4.12-.86-26.6-13.82-28-15.37l.18-.23a11.06,11.06,0,0,1,2.34.62l-2.52-1.27-.37-.5L613.58,92,616,93.74c-7.14-3.44-8.84-3.87-9.51-3.88a21.09,21.09,0,0,0,11.19,5.28c3.12.42,9.56,4.21,13.08,6.41"/><path class="cls-4" d="M359.73,40.3A1.19,1.19,0,0,1,360,40l.11-.24c-.44-.16-.64-.23-4.29.21q-15.43,1.66-30.42,4.57c-3.57.71-4.23.88-5,1.35l-.55.56c-2.49.51-5,1.07-7.48,1.66A23,23,0,0,1,317,44.3q3.68-.81,7.36-1.55l-.42.28-.25.19c.29.2.29.2,3.61-.42q15-2.82,30.21-4.34c4.38-.45,4.88-.51,5.59-.92l.39-.26c2.55-.22,5.07-.42,7.62-.57a18.21,18.21,0,0,0-3.59,2.95c-2.59.21-5.18.44-7.76.71"/><path class="cls-4" d="M356.25,49.12v-.41c-.25-.6-1.11-.53-5,0a406.9,406.9,0,0,0-43.17,8.88,13.87,13.87,0,0,1,.33-2.21c12.55-3.8,29.41-8.44,42.2-11.35Q336.12,46,321.94,49c-3.32.69-4.32,1-4.87,1.57l-.23.54q-3.79.86-7.59,1.79A15.73,15.73,0,0,1,311.57,49q3.75-.89,7.51-1.66a2,2,0,0,1-.29.36l-.1.24c.3.1.41.25,3.59-.41q15.72-3.21,31.83-5.14c3.23-.38,4-.55,4.58-.89a5.72,5.72,0,0,0,.45-.53c2.59-.26,5.19-.51,7.78-.72a12.38,12.38,0,0,0-1.77,2.91c-10.15,2.05-23.7,4.74-33.7,7.34q9.94-1.86,20.06-3.3c3.27-.46,4.5-.63,5-1.08a4.41,4.41,0,0,0,.26-.59l7.9-1a12.43,12.43,0,0,0-.47,3.48c-2.64.33-5.27.67-7.9,1.05"/><path class="cls-4" d="M346.13,60.93c9.23-3.1,10.31-4,9.74-5.82-.14-.41-.28-.86-.39-1.27q-7.51,1.27-15,2.8l.2.71c.54.83,2.14.65,5.73-.07l2.94-.6c.17.47.36,1,.56,1.44q-12.56,2.54-24.89,5.82c-.23-.54-.44-1.06-.64-1.59l3.62-.88c4.5-1.13,4.52-1.7,4.54-2.15a1.86,1.86,0,0,0-.24-.83q-5.83,1.3-11.65,2.8c-3.77,1-4.1,1.28-4,2.15l.17.5-7.63,2.16a23,23,0,0,1-1.25-6q3.8-1.05,7.57-2c-.05.11,0,.24,0,.37.23.76.59.85,4,0q15.94-3.95,32.29-6.6c3.88-.64,4.27-.79,4.35-1.55l0-.31q3.94-.57,7.9-1.08a20.77,20.77,0,0,0,2.57,8.12L349.46,61.9l-3.33-1"/><path class="cls-4" d="M493.33,140.56l-1.35-.47c-1.9-.67-2.43-.58-3.89,2q-5.25,9.48-10.77,19.74c-1.21,2.29-1.66,3.16.74,4.1l1.93.68-2.66,5.3q-9.13-3.39-18.09-6.93l3.19-5.11,1.44.51c2.5,1,3.08.76,4.6-1.73q6.11-10.09,11.94-19.41c1.6-2.57,1.55-3.08-.37-3.86l-1.35-.48,3-4.46q6.94,2.76,14.07,5.38c-.83,1.55-1.66,3.16-2.43,4.69"/><path class="cls-4" d="M521.24,176c-17,14-34.5,1.25-33.25-13.71.9-10.9,12.35-24.74,25.73-20.78a14.49,14.49,0,0,1,6.82,4.61l1.13-1.34,3.05,1-.06,14.44-4.82.1c-4-23.1-17-8.48-17.17-8.33-7.63,9.88-4.73,24.93,7.17,23.18,4.74-.69,8.34-3.79,9.56-4.8l3.17,4.52c-.39.34-.91.8-1.32,1.13"/><path class="cls-4" d="M538.63,171.74l4.73-10,2.18,12q-3.46-.93-6.92-1.92m23,25.93c.06-2,.14-4,.18-6-3.32-.83-3.32-.83-12.94-38.91-2.27-.6-4.53-1.21-6.78-1.85-4.27,8.57-10.32,19.84-15.24,28.1-1.37,2.15-2.07,2.58-4.69,1.82-.45,1.89-.92,3.79-1.4,5.74q7.49,2.28,15,4.39.49-2.91,1-5.89c-4.49-1.28-4.49-1.28-.79-8q5.5,1.56,11,3l.72,4.1c.63,3.37.42,3.88-3.6,2.91-.23,1.94-.48,3.9-.73,5.9q9.15,2.46,18.32,4.68"/><path class="cls-4" d="M578.55,189.38l-.9-.2q-6.55-1.4-13.14-3,0-3.75-.07-7.29,6.33,1.5,12.62,2.85l.87.18c.26,2.45.44,4.92.62,7.42"/><path class="cls-4" d="M612.49,195.83c1.86,11-8.19,14.13-17.12,8.36a30.81,30.81,0,0,1-4.11-3.26l-.83,3-4-.79-4.15-17.66,4.4-.49c6.85,15.33,17.08,16.4,18.65,13.26,2.22-4.46-2.87-7.16-13-12.54-14.48-7.9-13.41-22.82-6.07-24.56a9.09,9.09,0,0,1,3.41,0c2.74.61,4.41,1.55,7.25,3.89l0-1.9,2.75.42,6.86,14.65-3.4,1c-9.4-15-14.9-11.79-15.41-10-1,3.6,2.58,5.48,12,10.45,3.24,1.77,10.95,6,12.7,16.08"/><path class="cls-4" d="M619.94,171.61l-1.1-.1c-1.53-.13-1.73.16-.45,3.47q4.73,12,8.59,24.63c.91,2.91,1.15,3.68,3,4.08l1.79.17c.67,2.13,1.3,4.25,1.92,6.4q-7.47-.69-15.56-1.72c-.48-2.13-1-4.24-1.47-6.35l1.25.17c2.1.24,2.49,0,1.63-3.24q-3.33-12.63-7.62-24.66c-1.25-3.33-1.66-3.87-3.39-4.12l-1.19-.16c-.68-2-1.39-3.93-2.11-5.86q6.32.83,12.09,1.36c.89,2,1.75,3.95,2.62,5.91"/><path class="cls-4" d="M655.75,199c4.24,10.51-1.12,15.3-8.39,12.28a24.86,24.86,0,0,1-5.65-3.63l.2,3.28-3.15-.23-7.9-17.95,3.09-1.19c9.31,14.72,16.63,14.42,17.38,11.64,1.34-5.1-4.69-7.89-13-11.73-14.06-6.7-17.12-23.94-11.56-25.55a5.52,5.52,0,0,1,1.57-.17c2.18.23,3.74.94,6.57,3l-.62-2.15,2.07,0,9.9,14.58-2.07,1.7c-11.9-14.89-14.35-9.2-14.37-9.12-.75,4.26,4.63,6.74,12.08,10.18,2.69,1.25,9.79,4.68,14,15"/><path class="cls-4" d="M665.69,181.1c-2.87-3.32-7.66-8.92-10.08-9l-.2.18c.09.42.11.53,1,1.88q8.07,12.46,15,25.62c2.34,4.45,2.39,4.44,4.75,4.16,1.11,2.12,2.16,4.23,3.26,6.4-3.36.44-7,.75-10.8,1q-1.46-3.24-3-6.43l.68,0c1.66-.16,1.95-.33-.05-4.35q-6.73-13.47-14.62-26.32c-.55-.89-1.71-2.73-2.32-.83-.49,1.48,0,2.94,1.87,9.08l-3.89-2-6.41-15.28c.59,0,1.18,0,1.75-.06l1.1,1.43c3.47-.17,6.71-.47,9.73-.86l-.83-1.47,1.43-.2,12.47,14.73-.9,2.42"/><path class="cls-4" d="M699.71,204.93a60.37,60.37,0,0,1-13.84,4.3q-1.67-3.21-3.44-6.37l.45-.09c1.63-.41,1.33-1-.76-4.6q-7.23-12.34-15.51-24.13c-2.43-3.35-2.78-3.47-3.74-3.42l-.66.14c-1.41-2-2.84-3.95-4.29-5.89a48.21,48.21,0,0,0,10.45-3.2l11.84,12.67,0,2.69c-7.23-7.9-8.72-7.57-10.17-7.31-.64.22-1.31.42-2,.63q4,5.31,7.73,10.76l.7-.22c1.32-.5,1.11-1.17-1.66-5l-1.18-1.67c.55-.18,1.09-.37,1.59-.57q6.81,9,13,18.47c-.59.23-1.18.44-1.78.62l-1.24-1.93c-2.8-4.26-3.33-4.13-4.57-3.82l-.67.2q3.33,5.07,6.49,10.28c1.52,2.49,1.64,2.68,2.64,2.46l1.28-.42c1-.41,4-1.62-2.71-13.32l2.91,1.22L699.74,205"/><path class="cls-4" d="M683.22,157.56,683,158c0,.63.27,1.05,2.69,3.74Q695.87,173,704.81,185c1.49,2,1.75,2.34,2.33,2.7l.26-.12.24-.54q2.15,2.91,4.2,5.89a15.44,15.44,0,0,1-2.36,4.6c-1.35-2-2.74-4-4.16-6a3.71,3.71,0,0,1,.23-.32c.28-.65.31-1-1.84-4q-9.59-13.12-20.64-25.47c8.06,10.81,18.37,25.52,25.51,36.87a13.48,13.48,0,0,1-1.1,1.17c-8-10-18.93-23.12-27.49-32.7q10.54,12.6,19.63,26c1.44,2.08,1.78,2,2.21,2s.44-.34.59-.46c1.37,2,2.73,4.06,4,6.11a27.49,27.49,0,0,1-4.34,3q-1.9-3.16-4-6.22l.47-.28c.6-.5.69-.83-1.55-4.19q-8.35-12.36-17.87-24.06c-2.24-2.76-2.73-3.11-3.35-3l-.53.3c-1.58-1.92-3.19-3.82-4.81-5.71a20.14,20.14,0,0,0,3.67-2.6c6.72,7.13,15.72,16.6,22.13,24-5.87-8-13.64-18.67-20-26.32a11.86,11.86,0,0,0,1.74-3.44q2.61,2.67,5.13,5.37"/><path class="cls-4" d="M697.85,169.25l-9.56-11.76,9.42,9.68a16,16,0,0,1,.14,2.08m13,10.7c-1.36-1.85-2.76-3.69-4.16-5.52l.1.3c-.35-.12-.35-.12-1.95-1.93-8.89-10.25-11.9-13.07-26.37-26.7a15.74,15.74,0,0,1,.16,2.06c8.5,10,19.43,23.52,27.09,34.05,2,2.91,2.12,3.37,2.08,4.09,1.41,2,2.81,4,4.19,6a15.84,15.84,0,0,0,.51-4.22q-2.09-2.91-4.18-5.73a2.24,2.24,0,0,0-.05.52c-.47,0-.47,0-5.71-7.35a17.23,17.23,0,0,0-.22-3.29l2.83,3.35c2.32,2.7,2.73,3.35,3,4.61,1.42,1.89,2.84,3.78,4.2,5.68a24,24,0,0,0-1.54-5.9"/><path class="cls-4" d="M694.93,156.79c5.25,6.34,12.19,15.38,13.19,17.48-.39-.13-.39-.13-1-.61l2.34,3.24.69,1.48-11.66-14.31-1.8-2.82a83.46,83.46,0,0,0,6.23,6.41c-.16-1.44-7-9.21-7.06-9.26l-.52.4c-2.37-.39-19.23-19.15-21-22a3.66,3.66,0,0,1-.28-.56l.12-.27a6,6,0,0,1,.83.44l-2-2-.83-1.17,10.7,10.16,2.6,3c-4.39-4.32-5.07-4.51-5.42-4.62.13,1.38,5.62,6.87,6.77,7.48l.59-.39c.29,0,.91-.06,7.52,7.9"/><path class="cls-4" d="M265,62.4a2.46,2.46,0,0,1,.42-.44l.15-.16-.13-.18a24.88,24.88,0,0,0-3.55,1.24q-14,5.48-27.39,12.06a21.69,21.69,0,0,0-4.75,2.71c-.28.26-.46.46-.64.66-2.22,1.13-4.42,2.28-6.62,3.47a30.21,30.21,0,0,1,6.12-5c2.16-1.16,4.32-2.29,6.51-3.4l-.57.37-.46.34a19.05,19.05,0,0,0,3.08-1.41q13.31-6.54,27.25-12c4-1.49,4.49-1.74,5.47-2.37l.58-.38c2.31-.85,4.64-1.7,7-2.53a26.88,26.88,0,0,0-5.32,4.37c-2.36.83-4.73,1.7-7.09,2.6"/><path class="cls-4" d="M260,75.24v-.61c-.15-.83-1-.57-4.52.9a380.88,380.88,0,0,0-38.57,18.86,21,21,0,0,1,.45-3c11.26-7,26.54-16,38.31-22.29q-13.15,5.35-25.77,11.73c-2.94,1.47-3.83,2-4.44,2.87l-.31.73c-2.25,1.16-4.47,2.36-6.68,3.57a21,21,0,0,1,3-5.15c2.19-1.18,4.41-2.35,6.65-3.49a2.63,2.63,0,0,1-.39.49l-.12.27.27.09A18.69,18.69,0,0,0,230.67,79q14-7,28.6-12.82c3.74-1.42,4-1.71,4.37-2.17.14-.19.27-.37.43-.55,2.36-.9,4.73-1.78,7.13-2.63a18.53,18.53,0,0,0-2.64,4.34c-9.37,4.73-21.89,11-30.94,16.21q8.91-4.26,18.11-8.08c3.46-1.44,4.24-1.81,4.69-2.54a4.55,4.55,0,0,0,.23-.8q3.59-1.41,7.2-2.76a17.83,17.83,0,0,0-.69,5.13c-2.42.94-4.84,1.9-7.21,2.91"/><path class="cls-4" d="M252.15,94.07c8.4-5.89,8.88-7.4,8-9.93a14.89,14.89,0,0,1-.54-1.84q-6.9,3-13.65,6.19c.1.32.19.64.3,1,.6,1.25,2.6.45,5.37-.83l2.7-1.25c.24.67.51,1.34.8,2q-11.38,5.35-22.36,11.38c-.32-.74-.59-1.46-.85-2.17l3.17-1.7c4.2-2.27,4-3.07,3.87-3.79-.13-.45-.22-.74-.29-1q-5.25,2.66-10.4,5.47c-3.08,1.7-3.62,2.18-3.42,3.28a7.71,7.71,0,0,0,.28.83c-2.25,1.27-4.47,2.56-6.69,3.89a30.37,30.37,0,0,1-1.66-7.93q3.31-1.89,6.71-3.74c0,.17,0,.33,0,.5.24,1,.57,1.09,3.59-.51q14.11-7.51,29-14c3.33-1.45,3.93-1.79,4-2.93,0-.15,0-.29,0-.45,2.39-1,4.8-2,7.21-2.91a30.91,30.91,0,0,0,3.69,12.06l-15.3,9.43-3.45-1"/><path class="cls-4" d="M256.28,116.76c-6.84,3.83-15.75,7.62-19.41,4-5-7.73,24.06-22.34,32.37-21,4.35.72,6,5.18-8.26,14.13-2.31,1.47-4.47,2.68-4.71,2.81m5.7,5.3c4.48-2.61,26.35-16.13,16.8-25.95-14.2-10.39-52.85,13.39-51.08,25.77,1.1,7.87,13.64,12.27,34.3.18"/><path class="cls-4" d="M499.54,253c-24.66,16.12-48.22-2.53-45-21.45,2.08-12,15.41-26.28,34.17-20.59a24,24,0,0,1,10.15,6.23l1.67-1.55,4.52,1.43-.39,17.45-6.83-.2c-5-25.31-21.31-15.28-25-10.43-9.35,12.22-3.85,29.81,12.42,27.33a28.48,28.48,0,0,0,11.86-5l4.28,5.52L499.5,253"/><path class="cls-4" d="M523.86,249.06l7.65-11.44,1.93,14.09q-4.79-1.29-9.61-2.65m28.85,30.86c.38-2.26.77-4.52,1.12-6.76-3.51-.9-3.79-1.51-4.57-4.26,0,0-.9-3.28-8.47-41.52-3.32-.89-6.69-1.81-10-2.74-6.93,9.75-16.35,22.64-23.69,32.12-2,2.41-2.91,2.88-6.43,1.85-.66,2.17-1.34,4.34-2,6.52q9.9,3,19.87,5.82l1.69-6.62c-6-1.72-6-1.72-.52-9.32q7.53,2.13,15,4.14l.6,4.76c.48,3.9.16,4.46-5.25,3.14q-.76,3.31-1.57,6.65,12.17,3.3,24.27,6.23"/><path class="cls-4" d="M577.56,271.49l-1.22-.27q-8.91-1.89-17.87-4,.59-4.15,1.14-8.31,8.77,2.07,17.48,3.94l1.22.27c-.21,2.78-.42,5.58-.69,8.38"/><path class="cls-4" d="M623.61,280.17c-.74,12.42-17.15,17.08-30.88,4.79l-1.8,3.3-5.24-1-2-19.91,6.39-.32c5.86,17.2,20.65,20,23.4,14.76,2.5-4.7-1.66-6.82-15.5-13.68-18.39-9.42-14.17-24.91-3.71-27.72a17.3,17.3,0,0,1,7.2-.19,19.85,19.85,0,0,1,9.76,4.83l1-2.23,4,.63,4.84,16.82-5.48,1.08c-8.9-17.49-18.73-14.22-19.81-11.76-1.75,4,2,5.89,14.67,12.17,4.13,2.11,13.8,7.06,13.11,18.43"/><path class="cls-4" d="M643.44,253.38l-1.6-.15c-2.37-.19-2.66.32-2.17,3.89q1.94,13.65,3,27.66c.25,3.12.34,4.28,3,4.6l2.13.2q.26,3.51.47,7.07-9.91-.91-20.61-2.35c0-2.34-.06-4.67-.12-7l1.71.23c3,.35,3.39-.06,3.27-3.51q-.66-14-2.2-27.69c-.45-3.8-.9-4.42-3.42-4.78l-1.74-.23c-.24-2.26-.51-4.5-.79-6.74q9.31,1.26,17.92,2c.36,2.24.83,4.51,1.18,6.78"/><path class="cls-4" d="M682.43,284.51c1.43,12.68-9.68,18.83-20.17,11.17-.83-.62-1.62-1.28-2.18-1.77l-.89,3.59-4.16-.3-4.65-19.92L655.2,276c7.35,16.68,18,16.38,19.69,12.52,2.45-5.61-2.53-7.78-13.54-12.56-17-7.67-15-26.21-5.89-28.77a10.93,10.93,0,0,1,3.22-.34c3.19.3,5.11,1.13,8.23,3.54l.2-2.42c1,0,2.08,0,3.1,0l6.87,16.6-3.8,1.9c-9.27-15.72-16-11.86-16.79-9.8-1.7,4.6,3.24,6.73,13.07,11,3.44,1.54,11.49,5.15,12.81,16.82"/><path class="cls-4" d="M704.18,264.07c-7.15-12.28-9.18-10.18-9.38-9.9s.06,1.26.41,2.15q4.5,14.21,7.84,28.78c1.12,4.93,1.2,4.92,4.39,4.52.51,2.35,1,4.7,1.47,7.05-4.46.59-9.24,1-14.32,1.29-.38-2.37-.8-4.72-1.25-7.07l.91,0c2.36-.17,2.67-.51,1.79-4.84q-3.15-14.94-7.48-29.51c-1.1-3.6-2.91-.89-3.27-.3-1.14,1.93-1.24,3.32-1.55,9.68l-4.49-2.22L678,246.25l2.62-.1.8,1.62q7.72-.36,14.36-1.29l-.32-1.66,2.2-.34,8.92,16.73-2.44,2.88"/><path class="cls-4" d="M735.7,289.57a79.67,79.67,0,0,1-18.34,5.72q-.76-3.51-1.62-7l.61-.12c2.29-.51,2-1.41,1.06-5.19q-3.61-13.71-8.4-27.13c-1.35-3.75-1.78-4-3.16-3.83l-1,.2c-.79-2.25-1.64-4.5-2.52-6.76a70.46,70.46,0,0,0,15.43-4.74L726,255.1l-1.22,3.32c-4.76-8.38-6.72-8.59-9-7.86-.93.32-1.87.59-2.88.91q2.35,6.08,4.46,12.25l1-.3c1.87-.58,2-1.43.33-5.82-.22-.62-.45-1.24-.68-1.86.79-.27,1.57-.53,2.29-.83q4,10.34,7.24,20.88c-.79.31-1.6.6-2.44.89l-.67-2.17c-1.53-4.82-2.21-4.63-3.88-4.15l-.92.27q1.8,5.72,3.42,11.49c.74,2.76.83,3,2.14,2.68l1.72-.56c1.44-.57,5.28-2.08,2.49-15.32l2.86,1.18,3.4,19.6"/><path class="cls-4" d="M735.46,233a2.16,2.16,0,0,0-.19.61c-.13.86,0,1.41,1.46,4.54q6.18,13.2,11,26.83c.83,2.39.92,2.58,1.38,3l.23-.2.32-.72c.76,2.21,1.48,4.43,2.18,6.65a20,20,0,0,1-3.14,6.09q-1-3.37-2.13-6.75l.31-.44c.49-.8.58-1.33-.63-4.67a299.59,299.59,0,0,0-11.93-29.27c4.41,12.63,9.79,29.6,13.18,42.56-.45.52-1,1-1.46,1.53-4.78-11.12-11.44-25.82-17-36.67a310.43,310.43,0,0,1,11.17,29.51c.71,2.11,1.06,2.28,1.62,2.15.27-.19.53-.41.78-.62.72,2.27,1.42,4.55,2.08,6.83a36.19,36.19,0,0,1-5.75,4c-.64-2.31-1.3-4.61-2-6.92l.62-.36c.89-.62,1.07-1.13-.09-4.82q-4.41-13.84-10.13-27.33c-1.43-3.33-1.79-3.55-2.56-3.33l-.75.45c-1-2.22-1.94-4.42-3-6.62a30.7,30.7,0,0,0,5.43-3.85c4.36,8.15,10.24,19,14.18,27.32-3.17-9.29-7.32-21.69-11-30.79a17.3,17.3,0,0,0,2.57-5.09q1.63,3.16,3.21,6.34"/><path class="cls-4" d="M744.71,245.59l-5.67-14,5.48,11.14a21.43,21.43,0,0,1,.19,2.88m6.48,12.86-2.64-7.73h0c-4.57-12.64-9-20.78-15.76-33.08a20.57,20.57,0,0,1,.28,3c5.17,12,11.6,28.18,15.82,40.52,1,3.22,1.09,4,.94,4.86.73,2.33,1.46,4.57,2.16,6.77a21.33,21.33,0,0,0,.71-5.57c-.7-2.2-1.44-4.38-2.2-6.56a2.76,2.76,0,0,1-.07.86c-.31-.27-.31-.27-3.08-8.56a23.42,23.42,0,0,0-.29-4.5l1.52,3.76a21.44,21.44,0,0,1,1.7,5.58c.76,2.16,1.52,4.27,2.2,6.51a30.5,30.5,0,0,0-1.33-5.82"/><polyline class="cls-4" points="743.74 238.1 743.65 237.88 743.61 237.78 743.74 238.1"/><path class="cls-4" d="M730.39,209.67,739.81,229c-2.32-5.24-7.77-16.34-11.32-22.81l1.9,3.5"/><path class="cls-4" d="M181.71,107.62l.51-.53.2-.21c-.4.11-.4.11-2.88,2q-11.72,8.94-22.55,18.91c-1.09,1-3.07,2.85-4.08,3.84-.32.32-.54.56-.74.78-1.79,1.69-3.55,3.41-5.3,5.14.33-.35.65-.7,1-1,10.17-9.36,24-21.57,34.87-30.28L193,98.76l-5.24,4.51c-2,1.44-4,2.88-6,4.34"/><path class="cls-4" d="M175.47,123.46v-.75l0-.35-.28-.19c-.67.2-.83.24-3.45,2.26a337.47,337.47,0,0,0-31.41,27.85,25,25,0,0,1,.51-3.44c9.21-9.85,21.87-22.7,31.83-31.91q-11,8.52-21.2,17.91a19.27,19.27,0,0,0-3.59,3.9l-.42,1c-1.79,1.7-3.57,3.43-5.32,5.18a24.59,24.59,0,0,1,3.58-6c1.74-1.72,3.51-3.44,5.3-5.14-.16.19-.32.39-.45.58l-.21.3c.41-.17.41-.17,2.26-1.88q11.24-10.43,23.52-19.77a21.66,21.66,0,0,0,4-3.38,3.17,3.17,0,0,1,.53-.69c2-1.48,4-2.94,6-4.36a22.56,22.56,0,0,0-3.27,5.4c-8,7.07-18.63,16.53-26.16,24q7.29-6.36,15-12.32c3.42-2.66,3.74-3,4.06-4l.19-.73c2-1.51,4-3,6.07-4.45a23.11,23.11,0,0,0-.87,6.41q-3.06,2.25-6.07,4.54"/><path class="cls-4" d="M170.42,147.91c6.67-8.13,6.9-10.21,5.82-13.33-.26-.77-.51-1.53-.72-2.28-3.81,3-7.56,6.07-11.25,9.25.11.38.22.77.35,1.18.72,1.63,2.8-.09,4.64-1.62l2.24-1.86c.28.83.62,1.66,1,2.49q-9.48,7.9-18.37,16.33c-.37-.87-.7-1.72-1-2.56l2.59-2.42c3.45-3.23,3.18-4.24,2.9-5.22l-.3-1.05q-4.34,3.81-8.43,7.8c-2.71,2.63-2.91,3.21-2.56,4.55l.26.8c-1.79,1.78-3.56,3.56-5.32,5.37a35.26,35.26,0,0,1-1.91-9.25c1.76-1.79,3.54-3.54,5.34-5.29,0,.19,0,.38,0,.58.21,1.15.54,1.2,2.94-1.07q11.38-10.77,23.69-20.58c2.68-2.12,3.19-2.61,3.23-4l-.05-.73c2-1.54,4-3.06,6.06-4.57a39,39,0,0,0,4.57,15l-12.4,13.43-3.32-1"/><path class="cls-4" d="M178.78,176.21c-4.66,4.2-13.13,10.62-17.52,6.16-6.3-9.24,18.89-29.51,26.18-28.5,5.82.8,6,9-8.66,22.34m6.75,6.34c2.28-2.17,22.25-21.36,10.22-34.08-15.19-11.9-44.84,20.06-43,34.28,1.3,10.85,15.08,16.3,32.83-.19"/><path class="cls-4" d="M218.56,193.43c-5.05,4.7-9.59,1.16-11.56-.32q-2.24-1.81-4.38-3.6,5-5.08,10.2-10,2.34,2,4.78,3.93c2.17,1.79,6.24,5.13,1,10.05m-13.3,37.92c1.58-2,3.18-4,4.79-5.92l-1.54-1.09c-2-1.52-2.36-2.59-1.93-6l1.87-15c14.68,5.61,27.35-9.17,23.17-18.48a19.42,19.42,0,0,0-5-5.73c-6.16-4.84-11.83-9.66-16.84-14.39-2,1.72-4,3.48-5.91,5.26l1,.88.54.42c1.41,1.49.6,2.38-1.35,4.23q-11.33,10.65-21.9,22.07c-2.17,2.35-3,3.23-4.93,1.76L175.79,198q-2.58,2.82-5.08,5.69c4.3,4.06,9,8.15,14.1,12.29,1.63-1.92,3.27-3.84,5-5.8l-1.42-1.14c-2.05-1.76-1.69-2.5,1.16-5.71q3.69-4.1,7.53-8.06l2.45,2c-1.75,7.75-4.2,18.1-5.49,25.86q5.4,4.09,11.22,8.18"/><path class="cls-4" d="M499.89,335,510,322.85l1.45,15.34q-5.78-1.56-11.54-3.19m32.36,33.78q1-3.55,2-7.09c-4.11-1.05-4.4-1.71-5.1-4.64-.15-.64-.15-.64-6.86-45.05q-6.24-1.67-12.47-3.41c-9,10.39-21.2,24.05-30.47,34.16-2.43,2.52-3.56,3-7.69,1.8q-1.25,3.45-2.54,6.95,11.55,3.5,23.18,6.78c.79-2.32,1.58-4.66,2.35-7-7.13-2-7.13-2-.15-10q8.92,2.53,17.9,4.94l.35,5.11c.32,4.33-.42,4.69-6.53,3.18-.74,2.34-1.48,4.7-2.25,7q14.17,3.83,28.33,7.27"/><path class="cls-4" d="M563.14,360.61l-1.44-.35q-10.58-2.26-21.23-4.79,1.15-4.39,2.27-8.77,10.54,2.44,21,4.73l1.44.31q-1,4.41-2,8.83"/><path class="cls-4" d="M617.69,370.84c-3.1,11.74-22.24,18.6-38.19,4.27l-2.64,3.39-6.15-1.21.5-20.88,7.89-.15c4.61,18.52,22.26,21.51,26.24,15.72,3.27-4.74-1-6.79-16.72-14.39C567.24,347,576,331.82,586.36,328.65a25.63,25.63,0,0,1,11.71-.59,22.82,22.82,0,0,1,11.47,5.47l1.66-2.36,5,.76,2.41,18-7,1c-7.49-18.57-21.23-15.83-22.79-12.67-2.06,4.15,1.46,5.82,16.31,12.95,5.07,2.51,15.6,7.73,12.47,19.6"/><path class="cls-4" d="M648.38,343.13l-2-.18c-2.78-.23-3.39.06-3.71,4.07q-1,14.46-3,29c-.41,3.21-.59,4.41,2.57,4.79l2.5.24q-.48,3.57-1.06,7.25-11.57-1.06-24-2.73.66-3.61,1.24-7.23l2,.26c3.54.41,4.1,0,4.69-3.58q2.13-14.5,3.47-29c.33-4-.1-4.69-3.19-5.14l-2.14-.27c.21-2.42.41-4.84.58-7.17q11.56,1.56,22.3,2.53c-.09,2.4-.19,4.79-.31,7.2"/><path class="cls-4" d="M687.45,376c-1.73,12-16,21.41-29,9.61l-1.93,3.69-4.86-.35-.72-20.63,6.17-1.22c4.55,16.92,17.23,17.78,20.59,12.79,3.81-5.67-.79-7.61-13.13-12.79-17.68-7.71-11.9-25.91-1.27-29.74a16.18,16.18,0,0,1,6.13-.89,14.46,14.46,0,0,1,9.29,3.81l1-2.6h3.86l3.28,17.55-5.18,2c-6.65-16.45-16.53-12.85-18.07-10.08-2.6,4.71,2,6.65,13.2,11.27,4,1.75,12.35,5.41,10.61,17.53"/><path class="cls-4" d="M719.33,354.34c-4.64-13.85-7.85-10.24-7.86-10.24-.22.27-.27.83-.21,2.19q.68,15,0,30.12c-.21,5.1-.14,5.08,3.63,4.61-.16,2.44-.34,4.87-.51,7.3q-7.8,1-16.7,1.5.31-3.63.6-7.27l1.07-.05c2.6-.18,3.23-.41,3.51-5q.84-15.45.31-30.83c-.17-3.8-3.22-.91-3.87-.31-2.08,2.08-2.61,3.66-4.92,10.25l-4.76-2.32,4.05-18.45,3.25-.1.42,1.73q9.55-.47,17.87-1.6l.21-1.8,2.75-.42,4.74,17.66-3.64,3"/><path class="cls-4" d="M745.79,380a93,93,0,0,1-21.38,6.65c.15-2.43.3-4.88.37-7.24l.72-.15c2.69-.6,2.71-1.54,2.8-5.44q.35-14.25-.62-28.44c-.25-3.43-.47-4.22-2.08-4l-1.46.28c-.18-2.41-.39-4.8-.61-7.2a87.59,87.59,0,0,0,19.25-5.88l3.9,15.23-2.33,3.61c-2.33-8.79-4.45-8.88-7.19-8q-1.73.57-3.54,1.11.58,6.43.86,13l1.21-.37c2.29-.75,2.6-1.58,2.32-6.23l-.13-2c1-.33,1.89-.66,2.79-1q.89,11,1,22c-.94.37-1.9.71-2.91,1.05v-2.25c-.1-5-.91-4.81-2.91-4.23l-1.11.33q.15,6,0,12c0,2.73,0,3.09,1.28,2.78l2.23-.71c1.85-.71,6.2-2.36,7.58-16.42l2.6,1.09L745.79,380"/><path class="cls-4" d="M761.85,317.93l-.24.73c-.3,1-.27,1.81.15,5a275.17,275.17,0,0,1,2.1,28.68,21.11,21.11,0,0,0,.15,3,2.28,2.28,0,0,0,.6-1c0,2.34,0,4.68,0,7a24.14,24.14,0,0,1-3.67,7.11c.06-2.36.08-4.74.08-7.09a2.73,2.73,0,0,1,.37-.52c.58-1,.78-1.46.73-5a279.6,279.6,0,0,0-2.39-31.26c.45,13.64.47,31.86-.18,45.53a24,24,0,0,1-1.7,1.79c-1.11-11.6-3.07-26.95-5.09-38.4a296.73,296.73,0,0,1,1.85,31.25c0,1.91.18,2,.63,2.28l.36-.18.83-.66c0,2.38-.06,4.76-.13,7.13a42.22,42.22,0,0,1-6.72,4.67c.08-2.39.14-4.79.17-7.17l.73-.42c1.07-.71,1.41-1.25,1.41-5.12q-.11-14.49-1.61-28.89c-.25-2.49-.41-3-.88-3.55h-.44c-.54.29-.83.46-1.16.65-.3-2.38-.61-4.74-.91-7.1a37.83,37.83,0,0,0,6.78-4.67c1.7,8.66,4,20.2,5.24,28.95-.25-10-.51-23.33-1.33-33.25a22.5,22.5,0,0,0,3.22-6.35c.33,2.29.74,4.6,1.07,6.91"/><path class="cls-4" d="M765,328.91a17.79,17.79,0,0,1,.07,1.93l-1.29-15.4.7,6.17.6,7.28M763.23,311l-1.42-9.48-.29-1.69a28.26,28.26,0,0,1,.35,3.78c1.48,13.26,3,31,3.36,44.36a21.76,21.76,0,0,1-.35,5.46c0,2.33,0,4.69,0,7a25.11,25.11,0,0,0,.83-6l.05-5.08V347l0,1c-.34-3.05-.15-6.11-.23-9.18,0-.69,0-1.38,0-2.07-.64-7.71-1.17-18.06-2.25-25.72"/><path class="cls-4" d="M108.71,191.42v-1.19l-.39,0a16.27,16.27,0,0,0-2.29,2.93A297.43,297.43,0,0,0,84.42,229a24.84,24.84,0,0,1,.5-3.65c6.44-12.24,15.37-28.4,22.66-40.22q-7.89,11.37-14.76,23.48c-1.91,3.38-2.35,4.27-2.63,4.81s-.34.79-.47,1.08q-1.8,3.28-3.51,6.65l.76-1.75c5.58-9.71,12.83-22.71,18.93-32.13l1.85-2.5q1.44-2.13,2.94-4.24c1.42-2,2.86-4,2.88-4l4.87-6.53a26.39,26.39,0,0,0-3.29,5.59c-6,9.12-13.9,21.28-19.3,30.76q5-8.21,10.58-16.09c2.43-3.43,2.7-3.91,3-5.09a7.22,7.22,0,0,0,.23-.83q2.17-3,4.43-5.91a25.12,25.12,0,0,0-.95,7.16c-1.51,2-3.05,3.91-4.47,6"/><path class="cls-4" d="M106.81,219.87c4.44-10,4.39-12.42,3.2-15.93-.29-.85-.58-1.72-.79-2.53q-4.18,5.85-8.09,11.9l.39,1.29c.72,1.79,2.23-.46,3.52-2.37.54-.8,1.07-1.6,1.62-2.39q.5,1.35,1.08,2.73-6.83,10.06-12.89,20.62c-.39-.93-.76-1.86-1.08-2.77.58-1,1.16-2,1.76-3,2.32-4,2-5.15,1.8-6.07-.18-.58-.28-1-.38-1.38q-3,4.86-5.76,9.85c-1.77,3.18-1.89,3.86-1.58,5.19.16.49.24.79.34,1.07q-1.78,3.31-3.51,6.65a37.53,37.53,0,0,1-2.06-9.82c1.14-2.24,2.31-4.45,3.51-6.65l0,.63a2.59,2.59,0,0,0,.24.76c.48-.21.58-.26,1.79-2.4a302.33,302.33,0,0,1,16.6-26.36c2-2.82,2.32-3.44,2.28-4.92,0-.42,0-.62-.06-.84q2.17-3,4.47-6a43,43,0,0,0,5.16,16.77l-8.65,16.74-2.9-.87"/><path class="cls-4" d="M118.74,251.76c-3.35,5.13-9.68,13-14.21,8.29-7.13-10.16,11.33-35.37,17.84-34.73,5.21.51,6.91,10.23-3.66,26.43m7.21,6.86c7.63-11.76,13-29.36,2.88-40.24C114.35,206.49,95.86,241,96.73,257.26c.65,12.26,10.78,21.23,23.51,8.54a43.83,43.83,0,0,0,5.68-7.19"/><path class="cls-4" d="M158.75,269.59c-3.89,5.57-8.85,1.72-11,.06-1.62-1.32-3.22-2.63-4.8-3.95q3.69-6.06,7.59-12c1.72,1.44,3.49,2.91,5.29,4.34,2.42,2,6.95,5.72,2.91,11.55M153.32,313c1.11-2.26,2.24-4.53,3.4-6.78L155.06,305c-2.14-1.59-2.69-2.85-2.93-6.7l-1-17c14.58,5.7,23.69-9.79,19.17-20.62-.45-1.05-1.61-3.86-6.65-7.92-6.88-5.41-13.18-10.81-18.83-16.11-1.49,2.13-3,4.29-4.43,6.46l1,1,.59.48c1.6,1.66,1,2.73-.41,5q-8.46,12.91-15.82,26.45c-1.56,2.86-2.14,3.92-4.35,2l-1.25-1.18q-1.76,3.35-3.47,6.73,6.89,6.48,15,13.05,1.68-3.39,3.42-6.74l-1.5-1.25c-2.29-1.95-1.92-2.88,0-6.49q2.61-4.8,5.33-9.53l2.68,2.19c-.11,8.84-.42,20.62-.16,29.46q5.73,4.35,11.86,8.68"/><path class="cls-4" d="M233.72,307l-2.37-1.31c-2.85-1.48-3.95-.78-5.59,1.94Q218,321.2,211,335.14c-1.09,2.23-1.76,3.57,1.25,5.4l2.75,1.53c-1.11,2.27-2.22,4.54-3.3,6.83q-11.86-6.5-22.77-13c1.09-2.29,2.21-4.55,3.35-6.81l1.69,1c3,1.75,4,1.76,5.71-1.44q7.65-15.06,16.26-29.64c-10,9.9-23,23.27-32.58,33.52q-3.09-1.87-6.09-3.77c3-13.57,7.38-31.63,11.11-45.06q-8.73,14.26-16.42,29.13c-.91,2.08-.51,3.27,1.7,4.75l2.08,1.32c-1.14,2.26-2.27,4.52-3.37,6.8q-8.76-5.56-16.79-11.18,1.67-3.39,3.41-6.77l1.57,1.1c2.66,1.76,3.49,1.47,5.29-1.89q7.06-13.62,15.16-26.76c1.67-2.72,2-3.83-.26-5.51l-2.13-1.47c1.36-2.15,2.74-4.29,4.13-6.4q8.67,6,18.18,12.05c-2.93,10-6.88,23.45-9.42,33.58,7.37-7.3,17.18-17,24.77-24.17q10.27,6.11,21.31,12.18-1.94,3.29-3.84,6.58"/><path class="cls-4" d="M594.13,462.35c-5.4,11.25-27.57,17.59-42.62,3.62l-3.36,3.28L541.63,468l3.29-20.63h8.77c2.64,18.9,21.91,21.77,26.91,15.68,3.74-4.54-.15-6.39-16.53-14.18-21.91-10.72-10.36-25.54.21-28.68a32.65,32.65,0,0,1,14.87-.74,23.8,23.8,0,0,1,12.21,5.72l2.36-2.35,5.65.88-.45,18.06-8,.91c-5.21-18.66-21.5-16.21-23.69-13.05-2.91,4.12.8,5.87,16.42,13.24,5.22,2.57,16.1,7.9,10.5,19.56"/><path class="cls-4" d="M633.76,435.31l-2.2-.2c-3.1-.26-3.87.05-5,4q-4.08,14.36-9.17,28.51c-1.11,3.13-1.51,4.31,1.85,4.7l2.66.25q-1.29,3.53-2.67,7-12.29-1.14-25.54-2.91c.93-2.34,1.83-4.69,2.72-7l2.14.28c3.6.44,4.42.21,5.81-3.43q5.17-14.17,9.4-28.59c1.14-4,.8-4.7-2.64-5.16l-2.39-.32c.7-2.39,1.36-4.79,2-7.18q12.94,1.74,24.93,2.83c-.61,2.4-1.24,4.81-1.87,7.2"/><path class="cls-4" d="M669.24,467.9c-4.9,11.69-22.27,20.69-33.58,9.25l-2.89,3.55c-1.7-.11-3.42-.23-5.18-.37l3.65-20.09,7.07-1.15c1.33,17.28,15.5,17,19.75,12.26,4.86-5.37.73-7.09-11.53-12.2-17.55-7.64-8.19-24.76,4.21-29.1a22.81,22.81,0,0,1,8.31-1.25,13.76,13.76,0,0,1,9.47,3.84l1.81-2.6,4.32,0-.75,17.42-6.21,2c-3.32-16.56-15.54-13.13-18-9.67-3.14,4.5.74,6.1,12.29,10.85,4,1.72,12.17,5.29,7.19,17.2"/><path class="cls-4" d="M709.11,446.38c-.87-13.54-5.51-10-5.55-9.95a4.93,4.93,0,0,0-.76,2.1q-3.49,15-8.39,29.64c-1.61,4.86-1.56,5,2.47,4.44-.83,2.36-1.68,4.7-2.56,7q-8.3,1.08-17.74,1.6c.88-2.34,1.75-4.69,2.58-7.05l1.13-.06c2.77-.2,3.52-.41,5.07-4.9q5.07-15,8.7-30.34c.2-.91.76-3.32-3.11-.94-3.39,2.08-4.94,4.5-9.08,10.86l-4.57-2.29,9.24-18.34,3.66-.15v1.74q10.75-.5,20-1.8l.77-1.78,3.08-.47L714,443.26l-4.83,3.13"/><path class="cls-4" d="M727.64,470.83a99.55,99.55,0,0,1-22.73,7.07c.87-2.34,1.71-4.68,2.54-7l.76-.16c2.94-.61,3.2-1.53,4.47-5.36q4.56-13.92,7.8-28.05c.81-3.63.67-4.19-.94-4l-1.59.32c.5-2.39,1-4.8,1.46-7.19a98.62,98.62,0,0,0,21.58-6.6L740,435l-3.33,3.72c.54-9.36-2.07-8.54-4.63-7.75-1.28.42-2.58.83-3.92,1.25q-1.39,6.47-3,12.88l1.33-.39c2.49-.83,3.1-1.7,4.22-6.31l.46-2c1-.37,2.08-.74,3.09-1.12q-2.49,10.94-5.86,21.78c-1,.39-2,.77-3.16,1.12.23-.74.46-1.47.69-2.25,1.47-4.95.58-4.69-1.56-4.08q-.59.19-1.2.36-1.67,5.91-3.61,11.79c-.77,2.34-.77,2.34-.42,2.78a5.71,5.71,0,0,0,.83-.11c1-.29,1.66-.53,2.38-.77,2-.75,6.68-2.5,12.39-16.41l2.07.94-9.08,20.34"/><path class="cls-4" d="M759.74,407.35l-.28.81a40.33,40.33,0,0,0-1.24,5.24,280,280,0,0,1-7.65,28.9c-.32,1-.66,1.95-1,2.93a4.66,4.66,0,0,0,.26-.61l-2.69,7.6a25.39,25.39,0,0,1-3.52,6.47c.86-2.33,1.69-4.67,2.47-7l.42-.54c.63-1,.93-1.49,2.08-5.07a275.92,275.92,0,0,0,8.15-31.38c-3.87,13.85-9.61,32.2-14.63,45.72-.57.66-1.18,1.3-1.81,1.92,2.91-11.3,6.31-26.44,8.2-37.93a283.83,283.83,0,0,1-8.34,31.12c-.53,1.66-.49,1.79-.29,2.21l.42-.2c.36-.3.61-.5.83-.71-.8,2.35-1.62,4.69-2.49,7a43.61,43.61,0,0,1-7.15,5c.87-2.33,1.7-4.68,2.5-7l.78-.46c1.16-.75,1.67-1.32,2.91-5.12a284.77,284.77,0,0,0,7.71-28.72c.61-2.82.54-3.07.22-3.57l-.46.1-1.16.68c.48-2.39.93-4.78,1.33-7.16a42.89,42.89,0,0,0,7.6-5.36c-1.28,8.68-2.91,20.29-4.77,28.9,2.91-10.08,6.85-23.52,9.15-33.72a24.69,24.69,0,0,0,3.59-7.07c-.39,2.36-.8,4.7-1.25,7"/><path class="cls-4" d="M65.83,276.1v-1.2c-.35.29-.35.29-1.29,3.47A273.28,273.28,0,0,0,56,317.66l.19-1.61,2.05-12.63,4.12-18.76-2.08,8.81q2-9.08,4.7-18.14c1.33-4.52,1.33-4.52,1.62-5.66a8,8,0,0,0,.23-.84c.74-2.33,1.5-4.66,2.3-7a25.57,25.57,0,0,0-1,7.33q-1.2,3.49-2.3,7"/><path class="cls-4" d="M67.59,306c1.54-11,1.22-13.41,0-17.08-.3-.87-.58-1.73-.81-2.56Q64.67,293,63,299.76c.12.42.24.87.38,1.31a2.59,2.59,0,0,0,.32.59c.57-.09.74-.24,1.66-3.46q.36-1.33.75-2.67c.32.91.7,1.83,1.09,2.76q-3.24,11.26-5.48,22.5c-.42-.91-.76-1.82-1.09-2.72.22-1.08.44-2.16.67-3.24.89-4.3.59-5.41.31-6.39l-.36-1.37Q60,312.49,59,317.72c-.59,3.31-.59,4.07-.24,5.38l.34,1q-.62,3.53-1.1,7a36.69,36.69,0,0,1-2-9.56c.34-2.37.7-4.71,1.09-7l0,.6a4.38,4.38,0,0,0,.15.72,10.28,10.28,0,0,0,.66-2.61,273.62,273.62,0,0,1,7-29.09c1-3.39,1.14-4,1-5.66l0-.62q1.11-3.5,2.31-7a44.23,44.23,0,0,0,5.27,17.21L69.83,306.7,67.62,306"/><path class="cls-4" d="M82.38,338.59c-1.9,6.51-5,13.36-9.08,9-7.39-10.06,1.18-37.18,6.78-36.94,3.45.16,7.8,8.77,2.26,27.94m7.06,6.81c4.06-13.71,3.94-32.26-5.54-42.65C72.22,292.65,65.61,320.48,66,335c.46,19.53,10.42,29.11,17.51,22,1.62-1.62,4-5,5.93-11.56"/><path class="cls-4" d="M118.82,355.82c-2.2,5.84-7.15,2-9.27.3-1.63-1.31-3.24-2.63-4.8-3.95q1.81-6.36,3.94-12.76c1.74,1.46,3.53,2.94,5.37,4.38,2.5,2,7.09,5.82,4.77,12M123,399.4c.46-2.19,1-4.39,1.46-6.58l-1.63-1.15c-2.12-1.59-2.8-2.77-3.8-6.59l-4.37-17.14c12.56,5.22,17.65-8.44,13.47-19.34-.81-2.1-2.16-5.61-8.46-10.68q-10.56-8.31-19.25-16.47c-.84,2.37-1.66,4.74-2.44,7.1l1,1,.6.49c1.66,1.71,1.45,2.8.63,5.29Q95.84,349.27,92.87,363c-.64,2.91-.88,4-3,2.13L88.62,364q-.68,3.39-1.25,6.75Q94,377,101.89,383.41c.42-2.22.86-4.43,1.33-6.65l-1.48-1.21c-2.26-1.91-2.16-2.85-1.36-6.48q1.08-4.86,2.35-9.73l2.66,2.18c1.75,8.81,3.92,20.59,6,29.33q5.56,4.22,11.59,8.46"/><path class="cls-4" d="M192.76,393.48l-2.41-1.34c-2.71-1.42-3.7-1-4.89,2q-5,13.77-8.76,27.07c-.59,2.11-.91,3.27,1.73,5l3,1.66q-.92,3.21-1.76,6.39-11.46-6.3-22.13-12.67c.52-2.15,1.07-4.3,1.64-6.47l1.66,1c2.81,1.61,3.79,1.88,4.72-1.32q4-14.48,9.41-29.47c-7.07,9.76-16.3,22.93-22.86,33q-3-1.81-5.9-3.65c0-13.44.35-31.39,1.15-44.8q-5.15,14.85-8.79,29.31c-.49,2.32.47,3.38,2.37,4.63l2,1.28q-.81,3.27-1.52,6.53-8.49-5.46-16.33-10.86c.46-2.19.94-4.38,1.46-6.58l1.55,1.07c2.72,1.82,3.27,1.29,4.08-1.81q3.36-13.39,8-27.1c.92-2.79,1.05-4-1.25-5.72l-2.15-1.48c.79-2.28,1.59-4.55,2.44-6.83q8.87,6.15,18.59,12.31c-.8,10.29-1.94,24-2.33,34.29,5.33-7.44,12.42-17.39,18-24.65q10.52,6.23,21.8,12.46-1.32,3.39-2.56,6.75"/><path class="cls-4" d="M208.26,424.48l9.88-10.39.47,15.6q-5.21-2.6-10.29-5.2M236.5,462.9q1-3.11,2.08-6.23c-5.2-2.5-5.54-2.63-7.44-51.32q-6-3-11.82-5.94c-8.76,8.73-20.3,20.44-28.77,29.38-2,2.11-2.84,2.43-6.23.61-.62,2.14-1.2,4.28-1.78,6.4q9.32,5.07,19.08,10.08.9-3.17,1.87-6.33c-6.1-3.17-6.1-3.17-.09-9.79q7.71,3.94,15.69,7.94l.18,5c.17,4-.25,4.53-5.81,1.9-.68,2.12-1.32,4.23-2,6.31q12.19,6.08,25,12"/><path class="cls-4" d="M598.93,523.74l-2.24-.21c-3.14-.27-4,0-6,3.53q-6.88,12.72-14.55,24.42c-1.66,2.58-2.27,3.55,1,3.91l2.57.23q-1.94,2.91-3.85,5.74-11.93-1.1-24.83-2.82c1.25-1.9,2.53-3.8,3.77-5.73l2.1.27c3.54.42,4.39.3,6.36-2.75q7.49-11.76,14.4-24.52c1.89-3.56,1.66-4.18-1.83-4.66l-2.41-.32c1.11-2.1,2.24-4.3,3.32-6.49q13.26,1.77,25.47,2.88c-1.11,2.19-2.23,4.35-3.38,6.49"/><path class="cls-4" d="M627.78,552.1c-7.33,9.43-26.37,16.67-35.12,7.48l-3.54,2.84-5-.35,7.43-16.62,7.33-.91c-2,14.08,11.41,14.64,17.11,10.42,5.95-4.45,2.26-5.91-8.87-10.3C590.89,538,604.27,523.87,615,520a29.59,29.59,0,0,1,11.52-1.89c4.44.31,6.48,1.17,8.85,3.52l2.47-2.35,4.38,0-5,15.52-6.65,1.7c.53-14.77-13.14-11.36-16.07-8.57-4.16,4-.57,5.38,10.09,9.58,3.56,1.49,11,4.57,3.2,14.58"/><path class="cls-4" d="M672.23,533.42c3-11.77-2.42-8.72-2.49-8.72a5.58,5.58,0,0,0-1.45,2q-7.56,13.25-16.21,25.46c-2.88,4.1-2.81,4.09,1.11,3.58q-2.13,2.88-4.3,5.71-8.05,1.08-17.25,1.55c1.42-1.87,2.82-3.78,4.22-5.71l1.11,0c2.76-.21,3.48-.35,6.12-4.09q8.73-12.42,16.41-26a3.8,3.8,0,0,0,.63-1.44c-2.75-2-11.86,6.89-15.29,10.22l-4-2,14-16.38,3.74-.15-.44,1.58q10.93-.54,20.46-1.84l1.24-1.66c1.07-.15,2.11-.31,3.15-.48l-5.23,15.61-5.51,2.83"/><path class="cls-4" d="M681.34,552.86a96.62,96.62,0,0,1-22.1,6.85q2.22-2.81,4.36-5.72l.76-.14c2.83-.62,3.37-1.37,5.67-4.54q8.34-11.55,15.66-24.08c1.58-2.74,1.54-2.89,1.35-3.46-.51-.18-.51-.18-1.34,0l-1.35.27c1.21-2.14,2.39-4.31,3.56-6.49a101.26,101.26,0,0,0,22-6.74l-6,13.5-4.08,3.44c3.67-8.19.92-7.31-1.5-6.53-1.3.44-2.62.83-4,1.25q-3.32,5.78-6.85,11.37l1.32-.41c2.53-.81,3.37-1.6,5.82-5.64l1-1.73,3.16-1.12q-5.82,9.69-12.24,18.84c-1,.39-2,.76-3.08,1.12.41-.62.88-1.25,1.31-1.87,1.69-2.46,1.75-2.85,1.84-3.45l-.3-.26a7.86,7.86,0,0,0-1.66.39l-1.19.35q-3.36,5.06-6.93,9.93a8.34,8.34,0,0,0-1.35,2.11,1.71,1.71,0,0,0,.87,0c.94-.28,1.64-.51,2.33-.75,2-.71,6.61-2.39,16.06-14.3l1.35.62L681.4,552.83"/><path class="cls-4" d="M718.57,510.47q2.41-3.9,4.75-7.83c-7.9,12.26-18.92,28.38-27.78,40.09-.54.63-1.14,1.24-1.76,1.87,6.65-9.45,15.08-22.3,20.78-32.24a291.58,291.58,0,0,1-18,27,10.25,10.25,0,0,0-1.13,1.7l.39-.14c.36-.28.6-.49.83-.69q-2.24,3-4.54,5.8a44.05,44.05,0,0,1-6.93,4.79c1.55-2,3-3.83,4.5-5.77l.77-.44c1.21-.76,1.86-1.39,4.1-4.41a292.55,292.55,0,0,0,16.5-24.91,10.19,10.19,0,0,0,1.54-3h-.47L711,513q1.85-3.24,3.62-6.52a43.69,43.69,0,0,0,7.74-5.48c-4.29,7.71-9.94,18.06-14.77,25.52,5.91-9.07,13.87-21.11,19.23-30.46a23.7,23.7,0,0,0,1.83-2.91l-10.09,17.36"/><path class="cls-4" d="M58.69,393.57c-1.46-10.48-1.88-12.33-3.26-16.3-.28-.81-.52-1.59-.74-2.38q.21,6.57.79,13.1c.1.42.22.79.35,1.18a2.55,2.55,0,0,0,.22.54c.16-.37.18-.41,0-3.42l-.19-2.63c.31.83.61,1.67,1,2.55Q57.46,397.16,59,408c-.36-.83-.68-1.66-1-2.46l-.41-3.11a31.41,31.41,0,0,0-1.17-6.23l-.3-1q.57,5.19,1.36,10.26a33.62,33.62,0,0,0,1.08,5.26l.25.75q.57,3.32,1.2,6.65l-1.3-4.72L58,409.25,55.9,396.17Q54.36,384.65,53.81,373c-.18-3.65-.18-3.65-.3-5.46l0-.58c-.07-2.32-.12-4.62-.12-6.94a41.45,41.45,0,0,0,4.91,16.09l1.74,18-1.32-.46"/><path class="cls-4" d="M75,423.67c.41,7.62-.47,11.05-2.5,9.64a5.84,5.84,0,0,1-.92-.94c-6.36-8.46-8.66-35-4.47-35,2.27,0,6.93,7.76,7.92,26.28m6.33,6.19c-.48-12-4.31-29.69-13.51-40.11-4.4-4.16-6.69-1.81-6.84,7-.42,24.85,12.75,50.91,18.2,45.65,1.17-1.13,2.49-4.23,2.15-12.54"/><path class="cls-4" d="M104.82,439.28c-.34,5.4-4.81,1.84-6.81.3-1.49-1.21-3-2.41-4.38-3.62q-.16-5.9,0-11.88c1.62,1.37,3.27,2.73,5,4.09,2.31,1.9,6.65,5.41,6.25,11.1m13.05,39.41c-.19-1.94-.34-3.89-.47-5.87l-1.44-1c-1.87-1.34-2.72-2.49-4.32-5.91l-7.12-15.47c10,4.57,10.37-6.33,7.69-13.72a31,31,0,0,0-10.66-14c-6.59-5.18-12.62-10.32-18-15.41-.08,2.26-.13,4.49-.15,6.73l.94.91.54.46c1.55,1.57,1.59,2.49,1.66,4.94a238.5,238.5,0,0,0,1.34,25.77c.25,2.29.25,2.29,0,2.77-.36.05-.47.08-1.43-.76l-1-1c.26,2.08.56,4.15.87,6.2,3.91,3.71,8.24,7.48,12.88,11.22-.27-2-.51-4-.7-6.07l-1.32-1.07c-2-1.66-2.19-2.4-2.53-5.87q-.42-4.44-.65-8.95l2.4,2c3.33,8,7.65,18.7,11.25,26.6q5,3.74,10.31,7.51"/><path class="cls-4" d="M171.36,474.33l-2.24-1.24c-2.66-1.41-3.27-.79-3.65,1.66q-1.53,12.13-2.05,23.62c-.07,1.77-.1,2.83,2.33,4.4l2.68,1.49c-.09,1.84-.15,3.67-.18,5.48q-10.2-5.61-19.67-11.27c-.08-1.87-.1-3.74-.08-5.62l1.49.89c2.91,1.66,3.33,1.3,3.42-1.1q.27-12.58,1.82-25.93c-3.74,8.56-8.46,20.08-11.46,28.87q-2.67-1.63-5.26-3.26c-2.81-11.92-6.35-27.92-8.55-40a253.78,253.78,0,0,0-.54,26.31,5,5,0,0,0,2.81,4.11L134,483.9c.05,1.92.14,3.83.25,5.73-5-3.22-9.87-6.44-14.5-9.64-.16-1.94-.31-3.9-.43-5.86l1.38,1c2.41,1.63,2.72,1.15,2.61-1.58q-.46-11.94.23-24.43c.14-2.6,0-3.65-2.18-5.24l-2.08-1.41q.19-3.1.46-6.23,8.31,5.74,17.39,11.52c1.45,9.24,3.28,21.62,5.09,30.83,2.77-6.59,6.42-15.38,9.53-21.83q9.86,5.85,20.4,11.66c-.33,2-.64,4-.91,5.91"/><path class="cls-4" d="M189.51,501.87l6.58-8.76,2.78,13.5c-3.15-1.56-6.28-3.15-9.38-4.74m29.2,33.29c.26-1.69.53-3.41.83-5.14-4.76-2.26-5-2.35-13.72-44.24q-5.61-2.77-11.07-5.56c-5.88,7.36-13.51,17.33-18.93,25-1.1,1.67-1.66,2.12-4.88.42-.08,1.83-.15,3.65-.2,5.46q8.25,4.5,16.94,8.94c.13-1.75.22-3.55.41-5.34-5.45-2.82-5.45-2.82-1.69-8.35q7,3.6,14.24,7.18l.92,4.25c.75,3.41.51,3.82-4.46,1.47-.2,1.77-.38,3.54-.54,5.29q10.85,5.4,22.21,10.68"/><path class="cls-4" d="M270.24,531.16c-4.78-15.38-11.12-13.87-11.42-13.27a6.73,6.73,0,0,0-.32.73q-3.47,11.42-6.23,22c-.92,3.56-.79,3.6,5.33,6.16-.46,1.66-.9,3.33-1.32,4.94q-12.43-5.18-24.45-10.54.48-2.51,1-5.07l1.5.65c3.88,1.69,4.57,1.75,5.31-1.38q2.52-10.95,5.79-22.76c1-4.11-8.23-3.41-11.3-1.66a48.34,48.34,0,0,0-3.95,2.91l-6.28-4.95,10-11.39,5,2.27.16,1.62q14.92,6.72,30.49,13.2l1.12-1.08,5.3,2.18,2.12,16.58-7.87-1.15"/><path class="cls-4" d="M569.33,616.46c-9.07,6.79-27.68,11.75-33.52,5.13l-3.84,2c-1.47-.09-3-.2-4.46-.32l10.24-11.84,6.93-.57c-4.72,10.1,6.47,10.32,12.09,8.16,2.54-1,7.79-3.49,1.43-5.87l-6-2.08c-13.4-5,2.13-14.57,7.48-16.7a41.43,41.43,0,0,1,16.1-2.91c4.11.29,5.9.93,7.62,2.68l2.82-1.76,4.13,0-8.16,11.52-6.53,1.25c3.74-10.39-8.73-8.57-12.24-6.92-6.47,3.06-1.87,4.69,6.5,7.64,2.91,1.1,9,3.38-.61,10.57"/><path class="cls-4" d="M614.09,602.45c1.25-1.73,5.08-6.94,1.17-6.49-.88.1-1.4.52-2.65,1.68q-10.35,9.76-21.72,18.55c-2.5,1.92-2.52,1.94-2.82,2.41l.16.24a12.2,12.2,0,0,0,2.49-.21q-2.75,2-5.55,4-7.17,1-15.31,1.39c1.8-1.31,3.59-2.65,5.36-4l1-.06c2.46-.16,3.18-.29,6.62-2.91q11.42-9,21.84-18.94a4.49,4.49,0,0,0,.93-1.06c-1.91-1.42-12.17,4.93-16.56,7.64l-3.18-1.43,16.72-12.23,3.52-.14-.8,1.18q10.29-.48,19.14-1.72l1.58-1.25,3-.44-9.26,11.54-5.68,2.23"/><path class="cls-4" d="M613.92,615.08a85.05,85.05,0,0,1-19.65,6.07c1.91-1.31,3.83-2.65,5.68-4l.67-.12c2.46-.53,3.21-1,6.3-3.33q11-8.28,21.34-17.62a10.41,10.41,0,0,0,2.26-2.33l-.1-.28a5.29,5.29,0,0,0-.8.07l-1.48.31c1.7-1.61,3.4-3.24,5.08-4.88a93.64,93.64,0,0,0,20.62-6.31l-10,10-4.45,2.79c4-3.89,3.88-4.43,3.74-4.85a4.71,4.71,0,0,0-2.36.41c-1.2.42-2.43.79-3.71,1.19q-4.74,4.35-9.63,8.48l1.22-.37c2.29-.72,3.26-1.35,6.75-4.34.48-.42,1-.9,1.47-1.29,1-.35,1.94-.69,2.88-1q-8.26,7.24-17,13.88c-.9.35-1.83.68-2.78,1,.59-.46,1.17-.91,1.77-1.36a13.09,13.09,0,0,0,2.81-2.5c-.34-.11-.34-.11-1.57.22l-1.09.32c-3.06,2.47-6.14,4.88-9.32,7.21-1.43,1.06-1.49,1.1-1.81,1.37l.25.17.32-.08c.83-.26,1.46-.46,2.08-.68,1.66-.57,6-2.13,18-10.93l.59.21-18.16,12.6"/><path class="cls-4" d="M646.28,592.15l9.08-7.83q-9.71,8.65-20.11,16.49l-15.07,10.75c-.89.61-1.85,1.18-2.82,1.75q3-2,6-4.16l.69-.39c1.66-1,3.27-2.14,4.84-3.32q11.91-8.73,23-18.51a25.34,25.34,0,0,0,2.4-2.23l-.38.1-1,.57q2.68-2.45,5.3-5a41.34,41.34,0,0,0,7.26-5.12l-2.9,2.72-16.26,14.13"/><path class="cls-4" d="M76.86,472.13,75.58,469l.2.48,1.13,2.71"/><path class="cls-4" d="M78.57,475.87c-2.68-6.11-4.84-11.4-5.46-13l-.9-2.38-2.28-6.3a44.51,44.51,0,0,0,2.44,5.63l6.55,16.32-.36-.24"/><path class="cls-4" d="M94.91,501.38c2.82,6.45,3.36,8.23,3.32,8.9l-.26,0a4.77,4.77,0,0,1-.93-.92c-6.15-7.9-16.15-29.9-14.63-31,1.21.28,4.41,4.52,12.49,23m5.09,5.07c-3-7.13-11-24.81-19.73-35-1.38-1.44-1.62-1.63-2.24-1.66-2.65,3.3,20.36,47.35,25.39,48.63.41-.27,1.28-.8-3.42-11.9"/><path class="cls-4" d="M116.06,513.81c.9,3-.46,2.68-1.35,2.23a18.34,18.34,0,0,1-2.58-1.8l-3.64-3q-2-5.12-3.74-10.35c1.36,1.14,2.77,2.29,4.19,3.44a19.38,19.38,0,0,1,7.1,9.48m20.2,33c-.78-1.59-1.53-3.21-2.26-4.84l-1.15-.83a18,18,0,0,1-4.42-4.86l-9.14-12.93c2.35,1.19,6,2.08,3.77-4.9-1.19-3.88-4.59-11.49-13.88-18.92q-8.43-6.62-15.33-13.1c.62,2,1.28,4,2,6l.83.78.44.38a9.17,9.17,0,0,1,2.46,4.3A214.35,214.35,0,0,0,109,520.29c1,2,1,2,1,2.43a2,2,0,0,1-.93-.61l-.89-.83c.92,1.78,1.86,3.55,2.84,5.3q4.72,4.47,10.3,9-1.34-2.53-2.6-5.1l-1.06-.87c-1.55-1.32-2-1.93-3.41-4.94-1.19-2.52-2.33-5.08-3.43-7.66.64.56,1.3,1.1,2,1.64,4.55,6.68,10.53,15.67,15.25,22.2q3.93,3,8.2,6"/><path class="cls-4" d="M170,543.22l-1.88-1c-1.42-.75-1.61-.68-2.13-.49a2.71,2.71,0,0,0-.12,1.82,170,170,0,0,0,4.31,19,5,5,0,0,0,2.7,3.44l2.15,1.19c.42,1.4.86,2.87,1.31,4.27q-8.1-4.46-15.64-9c-.6-1.45-1.16-3-1.67-4.47l1.2.71c1.51.88,1.63.86,2.1.74.19-.45.19-.45-.11-1.36a168.79,168.79,0,0,1-5.36-21.38,177.85,177.85,0,0,0,.08,23.43c-1.41-.86-2.8-1.72-4.21-2.6-5.33-9.76-12.13-22.95-16.86-32.94a181.13,181.13,0,0,0,7.13,21.9,7,7,0,0,0,2.75,3.2l1.66,1.06c.63,1.57,1.28,3.12,2,4.66q-6-3.84-11.53-7.69c-.77-1.59-1.51-3.19-2.23-4.82l1.12.77a6.6,6.6,0,0,0,1.28.75l.34-.17a5.45,5.45,0,0,0-.58-1.94,180.31,180.31,0,0,1-7-20.48c-.63-2.21-1-3.11-2.86-4.44l-1.7-1.17c-.48-1.78-.92-3.56-1.37-5.36q7.06,4.89,14.81,9.8c3.32,7.73,7.73,18.09,11.43,25.7.17-5.41.35-12.65,1-18q8.38,5,17.37,9.92c.17,1.66.37,3.28.54,4.87"/><path class="cls-4" d="M189,565.66l3-6.83,4.69,10.71q-3.92-1.93-7.67-3.88m27.5,26.1c-.15-1.25-.28-2.51-.39-3.8-3.46-1.66-4.43-2.1-18.22-34.79-3.17-1.58-6.32-3.15-9.41-4.74a183.7,183.7,0,0,0-8.29,19.63c-.39,1.29-.63,1.62-3.17.26.41,1.38.85,2.78,1.29,4.19q6.59,3.57,13.49,7.13c-.33-1.36-.66-2.72-.9-4.06-4.44-2.29-4.44-2.29-3.11-6.53,3.78,2,7.64,3.93,11.55,5.82l1.55,3.29c.83,1.75.8,1.8.66,2.14-.63.26-.95.1-3.52-1.12.26,1.34.52,2.67.79,4q8.64,4.3,17.66,8.53"/><path class="cls-4" d="M254.53,590.33c-5.63-12.14-10.47-10.64-10.49-10.59a2.4,2.4,0,0,0-.19.71q-1.31,8.65-2,16.3c-.18,2.57,0,2.65,4.81,4.65-.13,1.21-.25,2.41-.32,3.5q-9.9-4.12-19.46-8.39c0-1.21-.11-2.44-.13-3.69l1.18.53c3.11,1.36,3.61,1.41,3.68-.87q.15-8,1.08-17.06c.15-2.84-6.49-3.79-10.17-.67-.48.42-1,.89-1.38,1.22l-5.55-4,5.92-8.69,4.26,1.92.36,1.3q12.71,5.7,26,11.19l.79-.81,4.53,1.87,3.42,12.71-6.34-1.12"/><path class="cls-4" d="M287.76,596.14l-2.14-.76c-3-1-3.71-1.1-4.46,1q-2.6,7.74-4.72,14.55c-.42,1.48-.61,2,2.27,3.14l2.32.83c-.38,1.12-.74,2.15-1.09,3.19q-10.35-3.82-20.44-7.82c.2-1.1.42-2.22.62-3.37l1.69.67c3,1.15,3.45,1.08,3.86-.59q1.66-6.88,3.82-14.86c.56-2.11.37-2.68-2.85-4l-2.1-.83c.34-1.35.7-2.71,1.07-4.11q11.67,4.62,23.63,9c-.51,1.34-1,2.67-1.48,4"/><path class="cls-4" d="M540.57,649.61c3.42-1.92,4.57-2.71,4.87-3.55-.49-.79-2.56.23-3.8.83q-12.5,6.14-25.6,11a33.66,33.66,0,0,0-3.38,1.3c.34.13.34.13,1.91-.07-2.11.76-4.24,1.48-6.39,2.18q-5.67.76-12.2,1.1c2-.7,4.09-1.41,6.12-2.16l.8,0c2-.12,2.65-.22,6.51-1.67A278.5,278.5,0,0,0,535,647.33c.67-.35.83-.45,1.07-.59l-.22-.19c-1.24.11-4.43.67-11.84,3.33-4.3,1.56-4.3,1.56-6.41.7L536,642.91c1,0,2-.07,3-.12l-1.08.75q8.73-.42,16.29-1.46l1.77-.83,2.5-.36L546,648.05l-5.36,1.51"/><path class="cls-4" d="M563.51,643a43.45,43.45,0,0,0,4-1.9c-.39,0-.39,0-1.67.45s-2,.66-3.1,1q-5.76,2.76-11.63,5.28l1-.31a56.38,56.38,0,0,0,7.12-2.88l1.79-.83c.83-.28,1.59-.58,2.41-.87q-8.26,3.78-16.74,7.07l-4.22,1.63c-.54.2-1.1.41-1.67.59.69-.26,1.39-.52,2.08-.8,2.57-1,3.22-1.25,3.63-1.45a10.65,10.65,0,0,0-1.14.32l-.89.26q-5.46,2.21-11,4.22l-2.22.79.28,0c.68-.21,1.19-.37,1.69-.54l.83-.29-9.8,3.29c-2.64.68-6.08,1.69-8.8,2.22Q518.7,659.1,522,658l.54-.11a40.17,40.17,0,0,0,6.45-2q12.88-4.73,25.36-10.57a22.66,22.66,0,0,0,2.91-1.47,1.35,1.35,0,0,0-.6,0l-1.28.25q3.12-1.53,6.19-3.12a79.66,79.66,0,0,0,17.6-5.41l-5.41,2.7-10.22,4.74"/><path class="cls-4" d="M129.63,556.08l-4.95-5.82c1.82,2.18,5.52,6.52,9.69,11.12l-4.74-5.31m13.56,14.58C132.72,559.81,119,543.18,118.83,543l10.81,13.05c4.82,5.19,11.15,12.19,16.17,17.23l-.47-.46-2.14-2.19"/><path class="cls-4" d="M150.52,575.23c1.35,1.73,1.38,1.87,1.39,2-.16,0-.3,0-2.13-1.42-.9-.71-1.76-1.42-2.61-2.15q-3.6-4-7.1-8.21c1,.84,2,1.67,3.08,2.53a46.54,46.54,0,0,1,7.36,7.22m25.85,24.35c-1.33-1.15-2.62-2.32-3.89-3.5l-.8-.57a50.77,50.77,0,0,1-4.18-3.43l-10.43-9.48a3,3,0,0,0,1,.49l.21-.22c-.39-1.32-7.8-11.06-17.61-18.83-4.19-3.29-8-6.55-11.45-9.79,1.25,1.69,2.59,3.28,3.9,4.89l.62.58.3.28a30.7,30.7,0,0,1,3.07,3.38,218.12,218.12,0,0,0,16.81,17.72c1.47,1.36,1.47,1.36,9.78,8.73.89.76,1.8,1.52,2.74,2.28-1.46-1.24-2.91-2.53-4.32-3.82l-.72-.59c-.87-.71-1.71-1.43-4-3.63q-3.08-2.91-6-5.85l1.39,1.15c5.4,4.92,12.52,11.57,18.12,16.33q2.63,2,5.46,4"/><path class="cls-4" d="M187.69,596.61l-1.4-.77a2.51,2.51,0,0,0-1.24-.41c-.06.39-.07.44.53,1.43A103.58,103.58,0,0,0,196,610.07a10.25,10.25,0,0,0,2.95,2.42l1.32.72c.91,1,1.85,1.9,2.78,2.81q-5.4-3-10.39-5.95-1.63-1.49-3.2-3l.83.47a8.45,8.45,0,0,0,1,.56c-.12-.39-.12-.39-.64-1a115.2,115.2,0,0,1-12.22-15.2,127,127,0,0,0,11.68,16.62l-2.78-1.72c-7.43-6.91-17.07-16.37-23.9-23.78a143.27,143.27,0,0,0,14.24,16.21,19,19,0,0,0,2.76,2.21l1.11.72c1.16,1.1,2.34,2.19,3.53,3.24-2.67-1.69-5.2-3.39-7.67-5.09-1.29-1.13-2.58-2.29-3.83-3.46l.75.52.65.42c-.2-.4-.2-.4-1.31-1.49A151,151,0,0,1,160,581a13.38,13.38,0,0,0-3.3-3.37l-1.24-.86c-1.05-1.36-2.07-2.75-3.08-4.15q5.26,3.66,11.06,7.31c5,5.75,11.48,13.48,16.83,19a133,133,0,0,1-7.52-13.24q6.27,3.7,13,7.4c.66,1.2,1.34,2.39,2.05,3.55"/><path class="cls-4" d="M206,612.42l-.81-4.52,6.2,7.25c-1.84-.91-3.64-1.83-5.48-2.76m23.64,17c-.53-.7-1.07-1.44-1.58-2.2-3.42-1.61-9.14-7.87-21.12-23.09-2.37-1.16-4.72-2.34-7-3.52a54.49,54.49,0,0,0,2.91,13.21,2.5,2.5,0,0,1,.27.63l-.2.09a5.22,5.22,0,0,1-1.29-.6c.92,1,1.76,1.87,2.68,2.76,2.91,1.58,5.89,3.17,9,4.73-.79-.83-1.55-1.66-2.3-2.55-3.08-1.58-3.08-1.58-4.23-4.24q3.93,2,8,4l2,2.11a5.64,5.64,0,0,1,1.17,1.31c-.3.12-.3.12-2.11-.75.67.83,1.37,1.67,2.08,2.46q5.73,2.85,11.73,5.64"/><path class="cls-4" d="M251.23,630.44c-5.07-6.57-8.07-7.16-8.62-7.22-.21.18-.21.18-.17.63a51.35,51.35,0,0,0,2.45,9.69c.52,1.43.69,1.49,3.93,2.82.22.63.46,1.24.72,1.82q-6.58-2.71-12.92-5.57c-.45-.65-.86-1.35-1.28-2.06l.81.36c1.62.72,1.66.7,2,.7.08-.2.11-.24-.24-1a53.15,53.15,0,0,1-3.64-10.39c-.3-1-4.53-3.81-7-.08l-4.39-2.79,1.47-5.56,3.21,1.44.51.88q9.49,4.26,19.39,8.35l.41-.48,3.4,1.39,4.33,8.08-4.32-1"/><path class="cls-4" d="M274.39,635.56,272.8,635c-2.17-.76-2.69-.86-3,.37q-.91,4.44-1.29,7.77c-.06.72-.1,1,1.91,1.74l1.56.55c-.09.52-.18,1-.24,1.45q-6.91-2.53-13.58-5.19c-.11-.53-.23-1.09-.32-1.66l1.15.42c2,.78,2.32.83,2.25-.08a59.08,59.08,0,0,1,.14-8.2c.08-1.32-.25-1.66-2.5-2.57l-1.56-.55c0-.83.07-1.66.13-2.53q8.73,3.45,17.63,6.75c-.22.8-.46,1.57-.64,2.27"/><path class="cls-4" d="M305.61,655.53c-19,.57-33.25-9.56-28.58-14.75,1.72-1.89,8-4,20.46,0a38,38,0,0,1,8.68,4l1.39-.35,3.82,1.2-1.13,5.82-5.06-1c-3.36-8.82-17.66-9.44-19.7-5.41-2.34,4.64,7.41,9.31,18,8.65,1.2-.08,2.5,1.12,3.41,1.8l-1.27,0"/><path class="cls-4" d="M322.86,657.75l8.22-1.77-1.58,3.62c-2.2-.6-4.39-1.21-6.59-1.83m12,8.43c1-.18,2-.39,2.94-.62-1.84-.46-2-.59-1.88-.88a1,1,0,0,1,.09-.22c2.94-3.41,2.94-3.41,5.51-10.1-2.83-.75-5.66-1.54-8.49-2.32-6.85,1.71-16,3.86-23,5.2a7.38,7.38,0,0,1-4.23-.42c-.56.35-1.11.67-1.66,1q5.6,1.7,11.22,3.29c.71-.25,1.43-.52,2.15-.83-2.2-.62-2.49-.72-2.65-1,.19-.16.19-.16,3.82-.75,3.25.92,6.48,1.82,9.72,2.68l-.74.88c-.6.66-1,.72-4.26-.14-.8.28-1.57.53-2.4.75q6.89,1.86,13.74,3.52"/><path class="cls-4" d="M355.39,668.08l-.78-.16c-3.78-.81-7.59-1.66-11.39-2.56l3.9-1.13q6,1.44,11.93,2.69l.83.17c-1.5.39-3,.72-4.45,1"/><path class="cls-4" d="M384.37,673.34c-8.31.73-22.13-.52-24.57-2.21-.78-.55-2.3-.25-3.29-.24l-3-.58,8.49-2,5.07.63c-2.34,1.32-1.73,2.36,1.78,3.12s8.7.83,9.72.21c-.15-.42-.15-.42-6-2.32-3.32-1.17-4.93-2.2-1.84-3.47,3.74-1.56,13-2.32,22.69-.68,3.33.62,4.75,1.11,5.87,2.07l2.6-.33,3.43.53-8.64,3.2-5.37-.36c3.37-2.15-.94-3.23-3.8-3.68-3.47-.55-7.58-.31-7.28.72.13.41.13.41,6.48,2.54,2,.7,3.9,1.36,2.34,2.07a16,16,0,0,1-4.84.88"/><path class="cls-4" d="M422.2,671.82l-1.28-.13a14.62,14.62,0,0,0-5.43.44,175,175,0,0,1-20.89,2.81c-1.87.14-1.87.14-2.23.19a1.05,1.05,0,0,0,.46.16l1.44.15c-1.77.08-3.57.15-5.35.19q-5.58-.52-11.63-1.33c1.61,0,3.21-.11,4.84-.25l1,.13a18.55,18.55,0,0,0,4.88.07,160.71,160.71,0,0,0,20-3,8.5,8.5,0,0,0,2.16-.57v-.22a8.82,8.82,0,0,0-1.25-.21l-1.39-.18c1.62-.38,3.24-.8,4.85-1.24q7.86,1,15.16,1.72c-1.78.41-3.53.83-5.32,1.18"/><path class="cls-4" d="M421.68,676.1a212.05,212.05,0,0,1-26.56,0l-2.36-.17,13.68-1.05,4.65.12c-4,.66-4.36.84-4.8,1,1.51.54,10.41.11,11.84-.1l-.12-.24-2.38-.46c-.88-.23-1-.42-1.06-.63,1.62-1.32,17.48-3.54,27.76-3.16,3.09.16,3.2.42,3.39.78l2.86-.42,2.66,0-12.69,2.49-4.77.24c3.15-.63,3.47-.88,3.92-1.21-.94-1.29-10.15-.33-11.09.45.28.25.28.25,3.2.86.64.14.64.14.89.31-.64.41-3.67.78-9,1.1"/><path class="cls-4" d="M462.24,672.36c1.08-.17,1.27-.22,1.57-.27a20.8,20.8,0,0,0-3.24.41c-3.06.49-6.12.91-9.18,1.29l-15.61,1.54c6.71-.55,13.4-1.37,20-2.41,1-.18,1.19-.21,1.44-.24-.37,0-.81,0-9.69,1.08-5.53.69-5.53.69-6.42.45l18.59-2.79,2.25-.08-1.31.29q6.56-.32,12.17-1.1l1.86-.34c.63-.09,1.27-.18,1.88-.29l-5.46,1-8.89,1.41"/><path class="cls-5" d="M784,319.66,767.91,363l-11.25-3.49S757,277,739.77,232.61c-.75-3-1.51-5.83-2.26-8.57-.64-1.45-1.29-2.85-2-4.19-2.08-6.88-4.07-12.69-5.73-17.25l-5.5-17.52q-.27,13-.69,24.69a3.87,3.87,0,0,0,.27.43l-.43,19.45-.72.43c-.08,1.64-.17,3.25-.26,4.85l-7.21,4.22s-3.21-24-30.94-52.24c0,0-20.09-31.36-63.09-45.68,0,0-55.84-27.26-102.85-26.59A444.78,444.78,0,0,1,583,146.49q-3-.94-6-1.84c-2-.28-3.93-.49-5.8-.62l-30.68-7.95c6.57,4.4,21.82,10,30.66,15.45A186.75,186.75,0,0,1,588.52,161l-20.77,4.43c-16.54-.08-27.25,2.17-27.25,2.17l24.93-1.84-24.86,1.86-.07,0,.06,0h-.07l.29.06C545.3,168.9,605.1,186.3,653,229.48c0,0,16.88,20.51,23.7,36.38l13.66,43-1.61,18.59-12.45-8.51-18.89-21.29L659,305l-1.61-.77s12.46,51.48,4,149.78l-19.28-19.35s-7.24-19-9.25-19c0,0-.41,48.75-4,56.51,0,0-14.46,62.7-36.16,96.37,0,0,6-17-4.42-8.9,0,0-2.41-3.1,2.81-48,0,0,1.61-6.2-11.65,13.93,0,0-46.61,79.73-103.26,87.47,0,0-67,19.39-148.58-18.54L292.92,573s-81.5-34.63-127.72-108.55a48.44,48.44,0,0,1-6.33-23.21,48.43,48.43,0,0,0,6.33,23.2c46.22,73.93,127.72,108.54,127.72,108.54l2-1.55c-7.63-.77-27.67-36.15-27.67-36.15-40.36-73.6-20.89-123.85-20.89-123.85a6,6,0,0,1-.13-.72,6,6,0,0,0,.13.72,16.82,16.82,0,0,1,.6-7h0c1-2.5,3.18-5.19,7.5-7.13a10.54,10.54,0,0,0-7.5,7.12,10.57,10.57,0,0,1,7.46-7.13h0a30.15,30.15,0,0,1,7.56-2.14s29.74-.78,66.3,12.77c0,0-14.69-27.68-28.58-52.46,6.18-5.93,33-31,50-36.23A274.21,274.21,0,0,0,374,305.05c10.17.58,15-4.16,15-4.16s14.08-6.33,6.73-22.13c0,0-13.78-19.29-39.29-4.77h0a13.26,13.26,0,0,0-6.88,6.36c-21.48-7.26-51.62-17.55-76-26.29,5-26.23,17.92-68.91,50.31-95.8,0,0-28.93-14.32-99.65,42.19,0,0-40.58-21.28-94,5.8h0s-2.05.94-5.46,2.73a245.31,245.31,0,0,1-12.9-23.33c-9.8-19-19.77-43-18.59-60v0s-20.86,23.71-33.85,61.16c-5.21,19.77-8.91,45.28-8.94,77.93q.48,3.94,1.17,8C27.66,301.68,8,325,9,365c0,0,15.56-16.32,20.39-14l9.28,9.64c-9.41,13.41-14.73,29.78-17.38,46.93-4.34,21.81-3.32,45.25.2,67.31a342.2,342.2,0,0,0,9.65,48.84c9.83,37.78,30.08,72.1,52.59,101a387,387,0,0,0,38.38,43.79l.06.06.06.07c22,23,48.41,45.23,79.58,62.81l.33.2h0q14.31,7.41,28.19,13.46-13.86-6.08-28.19-13.46,5.52,3.11,11.26,6c5.73,2.9,87.56,50.18,198.6,43.68h.09c18.67-.83,29.28-3,29.28-3,60.42-6.63,111-27.84,151.73-53.32l.65-.37.06,0a373.48,373.48,0,0,0,56.35-40.32s36.09-27.34,67.5-80.2a2.62,2.62,0,0,0,.17-.28l0,0c15.78-18.57,27.24-51.85,35.29-85,0-.09.05-.19.08-.28.12-.52.25-1.05.37-1.57q1.64-6.49,3-13.21l.36-1.64c.09-.45.17-.91.26-1.36a783.55,783.55,0,0,0,12.32-79.48l-.07.45.07-.45h0l.37-2.48S789.61,350.63,784,319.66Zm-537.9,89.08a13.54,13.54,0,0,0,.11,1.68,13.54,13.54,0,0,1-.11-1.68,11.62,11.62,0,0,1,.33-2.63A11.62,11.62,0,0,0,246.09,408.74ZM178.93,246.53l.31,0a5,5,0,0,0-.43.39Zm523.9,99.83s1.42-.3,3.5-3.59h0c-2.11,3.34-3.51,3.6-3.51,3.6ZM562.06,710.45c13.65-3,53.67-15.34,106.18-64.73h0c-52.52,49.39-92.53,61.78-106.18,64.73ZM52.36,430.58c0-51.53,15.14-93.2,16.33-96.4C67.5,337.38,52.37,379.05,52.36,430.58Zm698.93-97.84c.22-7.08.19-14,0-20.87C751.49,318.69,751.52,325.66,751.29,332.74ZM600.23,168.54a176.39,176.39,0,0,0-32.48-3.16h0a177,177,0,0,1,32.47,3.15ZM688.58,219l0,0c11.54,13.16,22.15,29.46,31.08,49.61,0,0-32.85,9.3-28.6,31,.2.83.29,1.3.29,1.3s-.07-.3-.11-.44,0-.24-.09-.39l-.09-.47s0-.11-.05-.17c-4-21.59,28.64-30.84,28.64-30.84C710.73,248.42,700.11,232.12,688.58,219Zm-5,305.28h0s-.12.53-.36,1.55C683.44,524.76,683.56,524.23,683.56,524.23ZM194.79,615.85a9.26,9.26,0,0,0-.3.94A9.26,9.26,0,0,1,194.79,615.85Zm.14,6.08h0a7.43,7.43,0,0,1-.49-1.39A7.43,7.43,0,0,0,194.93,621.93ZM335.41,776.47a384.66,384.66,0,0,0,62,5.19A384.66,384.66,0,0,1,335.41,776.47Z"/><path class="cls-6" d="M375.77,308.54c11.18,1.06,16.49-4.09,16.49-4.09A27.5,27.5,0,0,1,375.77,308.54Z"/><path class="cls-6" d="M350.54,292.57s-.41,5.44,8.59,11.29c0,0-53.14,22.59-60.9,27.26l63.14-26.67c-20-15.19-2.24-27.07-2.24-27.07S349.72,280.5,350.54,292.57Z"/><path class="cls-7" d="M726.7,609.18c16.11-18.74,27.79-52.37,36-85.81a324.16,324.16,0,0,1-36,85.81Z"/><path class="cls-7" d="M415.67,787.83c19-.83,29.84-3.06,29.84-3.06,61.76-6.7,113.47-28.22,155-54C528.38,772.55,461.29,782,461.29,782A333.54,333.54,0,0,1,415.67,787.83Z"/><path class="cls-7" d="M766.47,506.85a778.76,778.76,0,0,0,12.81-81.33l-10.65,69.53Q767.66,501.05,766.47,506.85Z"/><path class="cls-7" d="M47.93,573.43c17.62,40.11,45.58,74.29,72.89,100.93C85.69,637.89,61.8,599.32,47.93,573.43Z"/><path class="cls-7" d="M202.17,737.83Z"/><path class="cls-7" d="M28.63,381.7c-21.81,41.6-13,97.12-1.05,137.71C10.68,441.81,19.89,401,28.63,381.7Z"/><path class="cls-8" d="M368.67,305a37,37,0,0,1-9.48-1.91h0c-23.66,14.48-65,44.56-65,44.56h0c3,6.77,6,13,6,13s32.48-31.69,52.2-37.72c0,0,30.08-15.29,34-22.4C386.35,300.46,380.65,306.17,368.67,305Z"/><path class="cls-9" d="M375.77,308.54a43,43,0,0,1-12-3.08l3.18,1.36A36,36,0,0,0,375.77,308.54Z"/><path class="cls-10" d="M128.34,219.22a219.7,219.7,0,0,1-18-30.72c-10-19.13-20.12-43.27-18.92-60.38v0S70.23,152,57,189.63c-5.3,19.89-9.06,45.55-9.09,78.4q.54,4.49,1.37,9C50.12,281.64,90.65,234,128.34,219.22Z"/><path class="cls-11" d="M262.29,252.83c1.69,25,13.77,88.8,13.77,88.8,41.4-9.27,62.78-39.25,104.18-48.52C380.24,293.11,305.38,268.52,262.29,252.83Z"/><path class="cls-12" d="M369.76,300h0a37.57,37.57,0,0,1-7.1-3.46s-76.51,37-77.84,39.69c-.73,1.43,3.42,12.51,7.44,22.6h0S341.58,319.08,369.76,300Z"/><path class="cls-13" d="M105.64,226.34a204.68,204.68,0,0,1-11.12-26.1C88.38,184,82.17,163.41,83.07,148.78v0s-13.61,20.57-22.26,52.88c-3.51,17-6.1,39-6.39,67.09q.31,3.82.79,7.72C55.7,280.33,81.7,239.24,105.64,226.34Z"/><path class="cls-7" d="M202.18,737.83q5.63,3.13,11.45,6c5.83,2.92,89.08,50.5,202,44C374.41,789.67,294.46,785.12,202.18,737.83Z"/><path class="cls-7" d="M28.63,381.7A94.43,94.43,0,0,1,38.19,367S33.49,371,28.63,381.7Z"/><path d="M361.37,304.45l2.37,1a43.13,43.13,0,0,0,12,3.08,27.5,27.5,0,0,0,16.49-4.09s14.32-6.37,6.85-22.27c0,0-14-19.4-40-4.8C359.15,277.38,341.34,289.26,361.37,304.45Z"/><path class="cls-7" d="M120.82,674.36c22.44,23.3,49.46,45.72,81.34,63.46C201.64,737.53,162,714.52,120.82,674.36Z"/><path class="cls-7" d="M33.18,542.73a329.21,329.21,0,0,0,14.75,30.69,372,372,0,0,1-20.35-54Q30,530.56,33.18,542.73Z"/><path class="cls-6" d="M600.49,730.76a381,381,0,0,0,57.39-40.61s36.83-27.6,68.82-81C726.57,609.37,684.23,678.74,600.49,730.76Z"/><path class="cls-7" d="M766.47,506.85c-1.17,5.46-2.44,11-3.79,16.52Q764.77,515.3,766.47,506.85Z"/><polygon class="cls-14" points="255.39 401.42 255.38 401.42 255.38 401.42 255.39 401.42"/><path class="cls-15" d="M247.76,408.6c1-2.52,3.23-5.22,7.62-7.18A10.68,10.68,0,0,0,247.76,408.6Z"/><path class="cls-16" d="M794,323.34,777.62,367l-11.44-3.51s.37-88.48-18.95-131.91c11.45,40.73,23.25,109.08,1.38,176.31,0,0-16.13-73.07-33.62-61.26-2.15,3.37-3.58,3.62-3.58,3.62a15,15,0,0,1,3.58-3.62c5-7.82,13.84-32.37,17.78-109.28l-8.69,5s-3.27-24.14-31.47-52.56c0,0-20.44-31.54-64.17-46,0,0-56.8-27.44-104.62-26.76l-.29,1.46s43.61,14,84.48,42.43l-34,7.16c40.17.19,114.18,13.81,154.53,103.83,0,0-33.41,9.36-29.09,31.21.2.83.29,1.3.29,1.3-.11-.44-.21-.88-.29-1.3,0-.06,0-.12,0-.18-4.11-21.73,29.12-31,29.12-31C688.2,181.92,614.19,168.3,574,168.11l-1.15.24-26.48,2h-.09l.3.05c4.6,1.28,65.42,18.79,114.15,62.23,0,0,17.16,20.64,24.11,36.6l13.89,43.23-1.63,18.7-12.68-8.56-19.2-21.42,1.63,7.4-1.63-.78s12.67,51.79,4.08,150.7L649.71,439s-7.36-19.08-9.4-19.08c0,0-.42,49-4.09,56.85,0,0-14.71,63.08-36.78,97,0,0,6.13-17.13-4.5-9,0,0-2.45-3.12,2.86-48.29,0,0,1.64-6.23-11.85,14,0,0-47.41,80.21-105,88,0,0-68.15,19.51-151.12-18.65l-35.3-21.68S211.6,543.34,164.59,469c0,0-15.53-24.52,1.63-47.51,0,0,13.2-19.82,66.48-20h22.69a30.47,30.47,0,0,1,7.69-2.15s30.24-.79,67.43,12.84c0,0-36.78-68.53-49.46-86.83,0,0-1.63-3.9-6.13-13.63,0,0-7.76-7.79-3.27-31.15,0,0,4.09-78.27,54.36-119.55,0,0-29.43-14.41-101.36,42.45,0,0-41.27-21.42-95.62,5.83h0s-28.84,13.07-50.88,35S4,316,5.61,367c0,0,15.94-14.41,20.84-12.08L38.2,367a94.43,94.43,0,0,0-9.56,14.75c-8.73,19.27-18,60.11-1.05,137.71a373.44,373.44,0,0,0,20.34,54c13.86,25.89,37.77,64.46,72.89,100.93,41.15,40.16,80.83,63.17,81.34,63.46h0c92.27,47.29,172.24,51.84,213.51,50a334.73,334.73,0,0,0,45.61-5.78s67.09-9.48,139.19-51.29c83.75-52,126.1-121.39,126.21-121.58a323.5,323.5,0,0,0,36-85.81c1.36-5.54,2.62-11.06,3.8-16.52q1.17-5.82,2.15-11.79l10.64-69.54h0l.39-2.5S799.69,354.49,794,323.34ZM178.44,250.12c0-.12.07-.24.11-.36l.32,0A3.55,3.55,0,0,0,178.44,250.12ZM49.81,434.93c0-51.84,15.4-93.77,16.62-97C65.21,341.16,49.83,383.09,49.81,434.93Zm144.88,186.4a9.54,9.54,0,0,0-.31.95A9.54,9.54,0,0,1,194.69,621.33Zm.14,6.12h0a7.62,7.62,0,0,1-.51-1.4A7.62,7.62,0,0,0,194.83,627.45Zm98.08,53c-56.72-5-129.68-47.33-132-48.65,2.27,1.32,75.25,43.66,132,48.65,0,0,102.18,14.79,151.63,2.33C395.08,695.21,292.91,680.41,292.91,680.41ZM691.82,529.15h0s-.12.54-.37,1.56C691.7,529.69,691.82,529.15,691.82,529.15ZM563.06,717.4l1.14-.59-1.14.59Zm.48,0c6.18-.78,72.24-11.29,156.83-112.92C635.78,706.06,569.72,716.57,563.54,717.35Z"/><path class="cls-7" d="M247.14,415.62a16.85,16.85,0,0,1,.62-7A11.73,11.73,0,0,0,247.14,415.62Z"/><path class="cls-9" d="M361.37,304.45c.81.36,1.6.69,2.37,1Z"/><path class="cls-9" d="M363.74,305.46c-.77-.32-1.56-.65-2.37-1a32.84,32.84,0,0,0,5.56,2.37Z"/><path class="cls-7" d="M747.23,231.52c-6.52-23.21-12.93-37.47-12.93-37.47L744.52,226C745.46,227.73,746.37,229.58,747.23,231.52Z"/><path class="cls-7" d="M733.89,218.19c-.09-.13-.18-.27-.26-.41q-.37,10.28-.83,19.5l.71-.42Z"/><path class="cls-17" d="M649.53,212.79c20.35-11.84,32.86.91,56.44,14.74-43.21-52.41-83.57-68.76-122.56-80.27q-3-.44-5.9-.62l-31.19-8c6.68,4.43,22.19,10.1,31.18,15.55C577.5,154.18,626.14,176.07,649.53,212.79Z"/><path class="cls-7" d="M711.41,350.2s1.43-.26,3.58-3.63A15.05,15.05,0,0,0,711.41,350.2Z"/><path class="cls-18" d="M748.12,411.57c22.72-70.33,10.46-141.81-1.43-184.44-.89-2-1.83-4-2.81-5.79l-10.61-33.41q-.28,13.11-.7,24.84a4,4,0,0,0,.27.44l-.43,19.56-.74.44c-4.09,80.44-13.29,106.14-18.47,114.31C731.38,335.14,748.12,411.57,748.12,411.57Z"/><path class="cls-7" d="M574,168.11c-16.82-.08-27.71,2.19-27.71,2.19l26.56-2Z"/><path class="cls-7" d="M699.46,303.15c.08.41.18.86.29,1.3C699.75,304.45,699.66,304,699.46,303.15Z"/><path class="cls-19" d="M64.83,335.81s-42.92,84.11,3.27,192c0,0,52.72,116,207.2,148,0,0,114.84,26.08,234.18-14.41,0,0,99.72-38.94,181-135.5,0,0-42.91,208.72-223.55,226.63,0,0,129.68,3.11,214.62-107.86,0,0,92.36-79.83,77-191l18.5-30.14s-20,143.73-50.19,179.14c0,0-83.9,120.78-189.9,154.8,0,0-160.85,81.49-356.57-34.14,0,0-122.58-82-152.2-194.62,0,0-32.29-108.32,7.87-164.39L25,354Z"/><path class="cls-20" d="M304.54,164.39S245,184.6,221.08,214.93c4,2.55,27.79,12.53,37.46,37.39-.33-1.32-.64-33.95,46-87.93"/><path class="cls-21" d="M252.67,399h-22.4c-52.6.21-65.63,19.78-65.63,19.78-16.94,22.68-1.61,46.9-1.61,46.9,46.4,73.44,128.24,107.81,128.24,107.81l2-1.53c-7.66-.78-27.78-35.92-27.78-35.92-40.53-73.1-21-123-21-123a11.66,11.66,0,0,1,.6-6.93A10.57,10.57,0,0,1,252.67,399Z"/></svg>